<svg width="204" height="56" viewBox="0 0 204 56" fill="none" xmlns="http://www.w3.org/2000/svg">
<rect width="204" height="56" rx="28" fill="#FEFEFF"/>
<path d="M30.864 36.24C30 36.24 29.104 36.128 28.176 35.904C27.248 35.68 26.44 35.344 25.752 34.896C25.432 34.688 25.216 34.448 25.104 34.176C24.992 33.904 24.96 33.648 25.008 33.408C25.072 33.152 25.192 32.936 25.368 32.76C25.56 32.584 25.792 32.48 26.064 32.448C26.352 32.416 26.664 32.488 27 32.664C27.656 33.016 28.288 33.272 28.896 33.432C29.504 33.576 30.128 33.648 30.768 33.648C31.472 33.648 32.064 33.552 32.544 33.36C33.024 33.168 33.384 32.88 33.624 32.496C33.88 32.112 34.008 31.648 34.008 31.104C34.008 30.304 33.736 29.712 33.192 29.328C32.664 28.928 31.888 28.728 30.864 28.728H29.328C28.88 28.728 28.536 28.616 28.296 28.392C28.072 28.168 27.96 27.856 27.96 27.456C27.96 27.056 28.072 26.744 28.296 26.52C28.536 26.296 28.88 26.184 29.328 26.184H30.576C31.184 26.184 31.704 26.088 32.136 25.896C32.568 25.688 32.904 25.4 33.144 25.032C33.384 24.664 33.504 24.216 33.504 23.688C33.504 22.952 33.256 22.392 32.76 22.008C32.28 21.624 31.576 21.432 30.648 21.432C30.056 21.432 29.496 21.504 28.968 21.648C28.456 21.776 27.888 22.024 27.264 22.392C26.976 22.568 26.696 22.64 26.424 22.608C26.168 22.576 25.952 22.472 25.776 22.296C25.6 22.12 25.48 21.912 25.416 21.672C25.352 21.416 25.368 21.16 25.464 20.904C25.56 20.632 25.76 20.4 26.064 20.208C26.752 19.76 27.512 19.424 28.344 19.2C29.176 18.96 30.032 18.84 30.912 18.84C32.08 18.84 33.08 19.024 33.912 19.392C34.744 19.744 35.376 20.256 35.808 20.928C36.256 21.584 36.48 22.384 36.48 23.328C36.48 24 36.352 24.616 36.096 25.176C35.84 25.72 35.48 26.184 35.016 26.568C34.552 26.952 33.992 27.224 33.336 27.384V27.096C34.488 27.288 35.384 27.768 36.024 28.536C36.664 29.288 36.984 30.232 36.984 31.368C36.984 32.36 36.736 33.224 36.24 33.96C35.744 34.696 35.04 35.264 34.128 35.664C33.216 36.048 32.128 36.24 30.864 36.24ZM41.8706 36C41.3426 36 40.9346 35.864 40.6466 35.592C40.3746 35.304 40.2386 34.896 40.2386 34.368V20.712C40.2386 20.184 40.3746 19.784 40.6466 19.512C40.9346 19.224 41.3426 19.08 41.8706 19.08H46.5266C49.3586 19.08 51.5426 19.808 53.0786 21.264C54.6306 22.72 55.4066 24.808 55.4066 27.528C55.4066 28.888 55.2066 30.096 54.8066 31.152C54.4226 32.192 53.8466 33.072 53.0786 33.792C52.3266 34.512 51.3986 35.064 50.2946 35.448C49.2066 35.816 47.9506 36 46.5266 36H41.8706ZM43.3106 33.456H46.3346C47.3266 33.456 48.1826 33.336 48.9026 33.096C49.6386 32.84 50.2466 32.472 50.7266 31.992C51.2226 31.496 51.5906 30.88 51.8306 30.144C52.0706 29.392 52.1906 28.52 52.1906 27.528C52.1906 25.544 51.7026 24.064 50.7266 23.088C49.7506 22.112 48.2866 21.624 46.3346 21.624H43.3106V33.456ZM68.7795 36.24C67.9315 36.24 67.1715 36.08 66.4995 35.76C65.8435 35.424 65.3235 34.976 64.9395 34.416C64.5715 33.856 64.3875 33.224 64.3875 32.52C64.3875 31.656 64.6115 30.976 65.0595 30.48C65.5075 29.968 66.2355 29.6 67.2435 29.376C68.2515 29.152 69.6035 29.04 71.2995 29.04H72.4995V30.768H71.3235C70.3315 30.768 69.5395 30.816 68.9475 30.912C68.3555 31.008 67.9315 31.176 67.6755 31.416C67.4355 31.64 67.3155 31.96 67.3155 32.376C67.3155 32.904 67.4995 33.336 67.8675 33.672C68.2355 34.008 68.7475 34.176 69.4035 34.176C69.9315 34.176 70.3955 34.056 70.7955 33.816C71.2115 33.56 71.5395 33.216 71.7795 32.784C72.0195 32.352 72.1395 31.856 72.1395 31.296V28.536C72.1395 27.736 71.9635 27.16 71.6115 26.808C71.2595 26.456 70.6675 26.28 69.8355 26.28C69.3715 26.28 68.8675 26.336 68.3235 26.448C67.7955 26.56 67.2355 26.752 66.6435 27.024C66.3395 27.168 66.0675 27.208 65.8275 27.144C65.6035 27.08 65.4275 26.952 65.2995 26.76C65.1715 26.552 65.1075 26.328 65.1075 26.088C65.1075 25.848 65.1715 25.616 65.2995 25.392C65.4275 25.152 65.6435 24.976 65.9475 24.864C66.6835 24.56 67.3875 24.344 68.0595 24.216C68.7475 24.088 69.3715 24.024 69.9315 24.024C71.0835 24.024 72.0275 24.2 72.7635 24.552C73.5155 24.904 74.0755 25.44 74.4435 26.16C74.8115 26.864 74.9955 27.776 74.9955 28.896V34.656C74.9955 35.152 74.8755 35.536 74.6355 35.808C74.3955 36.064 74.0515 36.192 73.6035 36.192C73.1555 36.192 72.8035 36.064 72.5475 35.808C72.3075 35.536 72.1875 35.152 72.1875 34.656V33.504H72.3795C72.2675 34.064 72.0435 34.552 71.7075 34.968C71.3875 35.368 70.9795 35.68 70.4835 35.904C69.9875 36.128 69.4195 36.24 68.7795 36.24ZM79.8566 36.192C79.3766 36.192 79.0006 36.064 78.7286 35.808C78.4726 35.536 78.3446 35.152 78.3446 34.656V25.584C78.3446 25.072 78.4726 24.696 78.7286 24.456C79.0006 24.2 79.3766 24.072 79.8566 24.072C80.3366 24.072 80.7046 24.2 80.9606 24.456C81.2166 24.696 81.3446 25.072 81.3446 25.584V28.8H86.5286V25.584C86.5286 25.072 86.6566 24.696 86.9126 24.456C87.1686 24.2 87.5366 24.072 88.0166 24.072C88.4966 24.072 88.8646 24.2 89.1206 24.456C89.3926 24.696 89.5286 25.072 89.5286 25.584V34.656C89.5286 35.152 89.3926 35.536 89.1206 35.808C88.8646 36.064 88.4966 36.192 88.0166 36.192C87.5366 36.192 87.1686 36.064 86.9126 35.808C86.6566 35.536 86.5286 35.152 86.5286 34.656V31.152H81.3446V34.656C81.3446 35.152 81.2166 35.536 80.9606 35.808C80.7206 36.064 80.3526 36.192 79.8566 36.192ZM94.3382 36.192C94.0342 36.192 93.7782 36.136 93.5702 36.024C93.3622 35.912 93.2022 35.736 93.0902 35.496C92.9942 35.256 92.9462 34.952 92.9462 34.584V25.512C92.9462 25.048 93.0662 24.696 93.3062 24.456C93.5462 24.2 93.8822 24.072 94.3142 24.072C94.7462 24.072 95.0742 24.2 95.2982 24.456C95.5382 24.696 95.6582 25.048 95.6582 25.512V32.928H95.0342L100.962 25.032C101.138 24.808 101.354 24.592 101.61 24.384C101.866 24.176 102.218 24.072 102.666 24.072C102.97 24.072 103.218 24.128 103.41 24.24C103.618 24.352 103.77 24.528 103.866 24.768C103.978 24.992 104.034 25.288 104.034 25.656V34.752C104.034 35.2 103.914 35.552 103.674 35.808C103.45 36.064 103.122 36.192 102.69 36.192C102.242 36.192 101.898 36.064 101.658 35.808C101.434 35.552 101.322 35.2 101.322 34.752V27.312H101.97L96.0182 35.232C95.8582 35.456 95.6502 35.672 95.3942 35.88C95.1542 36.088 94.8022 36.192 94.3382 36.192ZM108.751 36.192C108.335 36.192 108.007 36.072 107.767 35.832C107.543 35.576 107.431 35.224 107.431 34.776V25.704C107.431 25.352 107.479 25.056 107.575 24.816C107.671 24.576 107.823 24.392 108.031 24.264C108.239 24.136 108.495 24.072 108.799 24.072C109.103 24.072 109.351 24.128 109.543 24.24C109.751 24.336 109.927 24.464 110.071 24.624C110.215 24.784 110.335 24.96 110.431 25.152L113.959 31.2L117.487 25.152C117.599 24.944 117.719 24.76 117.847 24.6C117.991 24.44 118.159 24.312 118.351 24.216C118.559 24.12 118.807 24.072 119.095 24.072C119.559 24.072 119.903 24.216 120.127 24.504C120.351 24.776 120.463 25.176 120.463 25.704V34.776C120.463 35.224 120.351 35.576 120.127 35.832C119.903 36.072 119.575 36.192 119.143 36.192C118.727 36.192 118.399 36.072 118.159 35.832C117.935 35.576 117.823 35.224 117.823 34.776V27.72H118.399L114.967 33.576C114.887 33.72 114.767 33.864 114.607 34.008C114.463 34.136 114.247 34.2 113.959 34.2C113.655 34.2 113.431 34.128 113.287 33.984C113.143 33.84 113.031 33.704 112.951 33.576L109.495 27.72H110.071V34.776C110.071 35.224 109.959 35.576 109.735 35.832C109.511 36.072 109.183 36.192 108.751 36.192ZM127.748 36.24C126.9 36.24 126.14 36.08 125.468 35.76C124.812 35.424 124.292 34.976 123.908 34.416C123.54 33.856 123.356 33.224 123.356 32.52C123.356 31.656 123.58 30.976 124.028 30.48C124.476 29.968 125.204 29.6 126.212 29.376C127.22 29.152 128.572 29.04 130.268 29.04H131.468V30.768H130.292C129.3 30.768 128.508 30.816 127.916 30.912C127.324 31.008 126.9 31.176 126.644 31.416C126.404 31.64 126.284 31.96 126.284 32.376C126.284 32.904 126.468 33.336 126.836 33.672C127.204 34.008 127.716 34.176 128.372 34.176C128.9 34.176 129.364 34.056 129.764 33.816C130.18 33.56 130.508 33.216 130.748 32.784C130.988 32.352 131.108 31.856 131.108 31.296V28.536C131.108 27.736 130.932 27.16 130.58 26.808C130.228 26.456 129.636 26.28 128.804 26.28C128.34 26.28 127.836 26.336 127.292 26.448C126.764 26.56 126.204 26.752 125.612 27.024C125.308 27.168 125.036 27.208 124.796 27.144C124.572 27.08 124.396 26.952 124.268 26.76C124.14 26.552 124.076 26.328 124.076 26.088C124.076 25.848 124.14 25.616 124.268 25.392C124.396 25.152 124.612 24.976 124.916 24.864C125.652 24.56 126.356 24.344 127.028 24.216C127.716 24.088 128.34 24.024 128.9 24.024C130.052 24.024 130.996 24.2 131.732 24.552C132.484 24.904 133.044 25.44 133.412 26.16C133.78 26.864 133.964 27.776 133.964 28.896V34.656C133.964 35.152 133.844 35.536 133.604 35.808C133.364 36.064 133.02 36.192 132.572 36.192C132.124 36.192 131.772 36.064 131.516 35.808C131.276 35.536 131.156 35.152 131.156 34.656V33.504H131.348C131.236 34.064 131.012 34.552 130.676 34.968C130.356 35.368 129.948 35.68 129.452 35.904C128.956 36.128 128.388 36.24 127.748 36.24ZM148.785 39.312C148.385 39.312 148.073 39.2 147.849 38.976C147.625 38.752 147.513 38.424 147.513 37.992V36H138.801C138.321 36 137.953 35.872 137.697 35.616C137.441 35.36 137.313 34.992 137.313 34.512V25.584C137.313 25.072 137.441 24.696 137.697 24.456C137.969 24.2 138.345 24.072 138.825 24.072C139.305 24.072 139.673 24.2 139.929 24.456C140.185 24.696 140.313 25.072 140.313 25.584V33.648H145.137V25.584C145.137 25.072 145.265 24.696 145.521 24.456C145.793 24.2 146.169 24.072 146.649 24.072C147.129 24.072 147.497 24.2 147.753 24.456C148.009 24.696 148.137 25.072 148.137 25.584V35.064L146.745 33.648H148.665C149.113 33.648 149.457 33.768 149.697 34.008C149.937 34.232 150.057 34.568 150.057 35.016V37.992C150.057 38.872 149.633 39.312 148.785 39.312ZM153.659 36.192C153.355 36.192 153.099 36.136 152.891 36.024C152.683 35.912 152.523 35.736 152.411 35.496C152.315 35.256 152.267 34.952 152.267 34.584V25.512C152.267 25.048 152.387 24.696 152.627 24.456C152.867 24.2 153.203 24.072 153.635 24.072C154.067 24.072 154.395 24.2 154.619 24.456C154.859 24.696 154.979 25.048 154.979 25.512V32.928H154.355L160.283 25.032C160.459 24.808 160.675 24.592 160.931 24.384C161.187 24.176 161.539 24.072 161.987 24.072C162.291 24.072 162.539 24.128 162.731 24.24C162.939 24.352 163.091 24.528 163.187 24.768C163.299 24.992 163.355 25.288 163.355 25.656V34.752C163.355 35.2 163.235 35.552 162.995 35.808C162.771 36.064 162.443 36.192 162.011 36.192C161.563 36.192 161.219 36.064 160.979 35.808C160.755 35.552 160.643 35.2 160.643 34.752V27.312H161.291L155.339 35.232C155.179 35.456 154.971 35.672 154.715 35.88C154.475 36.088 154.123 36.192 153.659 36.192ZM168.143 36.192C167.839 36.192 167.583 36.136 167.375 36.024C167.167 35.912 167.007 35.736 166.895 35.496C166.799 35.256 166.751 34.952 166.751 34.584V25.512C166.751 25.048 166.871 24.696 167.111 24.456C167.351 24.2 167.687 24.072 168.119 24.072C168.551 24.072 168.879 24.2 169.103 24.456C169.343 24.696 169.463 25.048 169.463 25.512V32.928H168.839L174.767 25.032C174.943 24.808 175.159 24.592 175.415 24.384C175.671 24.176 176.023 24.072 176.471 24.072C176.775 24.072 177.023 24.128 177.215 24.24C177.423 24.352 177.575 24.528 177.671 24.768C177.783 24.992 177.839 25.288 177.839 25.656V34.752C177.839 35.2 177.719 35.552 177.479 35.808C177.255 36.064 176.927 36.192 176.495 36.192C176.047 36.192 175.703 36.064 175.463 35.808C175.239 35.552 175.127 35.2 175.127 34.752V27.312H175.775L169.823 35.232C169.663 35.456 169.455 35.672 169.199 35.88C168.959 36.088 168.607 36.192 168.143 36.192Z" fill="#303030"/>
</svg>
