<svg width="262" height="56" viewBox="0 0 262 56" fill="none" xmlns="http://www.w3.org/2000/svg">
<rect width="262" height="56" rx="28" fill="#FEFEFF"/>
<path d="M30.456 36.192C30.104 36.192 29.8 36.104 29.544 35.928C29.288 35.736 29.128 35.488 29.064 35.184C29.016 34.864 29.096 34.504 29.304 34.104L31.224 30.36V31.32L24.792 20.928C24.584 20.576 24.496 20.248 24.528 19.944C24.576 19.624 24.728 19.368 24.984 19.176C25.24 18.984 25.56 18.888 25.944 18.888C26.344 18.888 26.648 18.984 26.856 19.176C27.08 19.368 27.296 19.64 27.504 19.992L32.712 28.56H32.16L36.504 20.016C36.664 19.712 36.848 19.448 37.056 19.224C37.28 19 37.608 18.888 38.04 18.888C38.408 18.888 38.712 18.976 38.952 19.152C39.208 19.328 39.368 19.576 39.432 19.896C39.496 20.2 39.416 20.56 39.192 20.976L32.016 35.064C31.872 35.352 31.68 35.616 31.44 35.856C31.216 36.08 30.888 36.192 30.456 36.192ZM41.7872 39.312C41.3872 39.312 41.0672 39.192 40.8272 38.952C40.6032 38.728 40.4912 38.4 40.4912 37.968V35.04C40.4912 34.112 40.9552 33.648 41.8832 33.648H43.2272L41.4512 34.272C41.8672 33.712 42.1952 33.128 42.4352 32.52C42.6752 31.912 42.8512 31.216 42.9632 30.432C43.0752 29.632 43.1312 28.688 43.1312 27.6V25.944C43.1312 25.4 43.2752 24.984 43.5632 24.696C43.8512 24.408 44.2672 24.264 44.8112 24.264H50.5952C51.1392 24.264 51.5552 24.408 51.8432 24.696C52.1312 24.984 52.2752 25.4 52.2752 25.944V35.04L50.8832 33.648H52.8032C53.2512 33.648 53.5952 33.768 53.8352 34.008C54.0752 34.232 54.1952 34.576 54.1952 35.04V37.968C54.1952 38.864 53.7712 39.312 52.9232 39.312C52.5072 39.312 52.1872 39.192 51.9632 38.952C51.7552 38.728 51.6512 38.4 51.6512 37.968V36H43.0352V37.968C43.0352 38.864 42.6192 39.312 41.7872 39.312ZM44.5472 33.648H49.4672V26.568H45.6992V28.296C45.6992 29.304 45.5952 30.28 45.3872 31.224C45.1952 32.168 44.9152 32.976 44.5472 33.648ZM61.7831 36.24C60.5671 36.24 59.5111 35.992 58.6151 35.496C57.7191 35 57.0231 34.296 56.5271 33.384C56.0311 32.456 55.7831 31.368 55.7831 30.12C55.7831 29.176 55.9191 28.336 56.1911 27.6C56.4791 26.848 56.8871 26.208 57.4151 25.68C57.9431 25.136 58.5751 24.728 59.3111 24.456C60.0471 24.168 60.8711 24.024 61.7831 24.024C62.9991 24.024 64.0551 24.272 64.9511 24.768C65.8471 25.264 66.5431 25.968 67.0391 26.88C67.5351 27.792 67.7831 28.872 67.7831 30.12C67.7831 31.064 67.6391 31.912 67.3511 32.664C67.0791 33.416 66.6791 34.064 66.1511 34.608C65.6231 35.136 64.9911 35.544 64.2551 35.832C63.5191 36.104 62.6951 36.24 61.7831 36.24ZM61.7831 33.96C62.3751 33.96 62.8951 33.816 63.3431 33.528C63.7911 33.24 64.1351 32.816 64.3751 32.256C64.6311 31.68 64.7591 30.968 64.7591 30.12C64.7591 28.84 64.4871 27.888 63.9431 27.264C63.3991 26.624 62.6791 26.304 61.7831 26.304C61.1911 26.304 60.6711 26.448 60.2231 26.736C59.7751 27.008 59.4231 27.432 59.1671 28.008C58.9271 28.568 58.8071 29.272 58.8071 30.12C58.8071 31.384 59.0791 32.344 59.6231 33C60.1671 33.64 60.8871 33.96 61.7831 33.96ZM76.0594 36.24C74.8114 36.24 73.7234 35.984 72.7954 35.472C71.8834 34.96 71.1794 34.2 70.6834 33.192C70.1874 32.168 69.9394 30.912 69.9394 29.424V27.672C69.9394 26.088 70.1714 24.768 70.6354 23.712C71.1154 22.64 71.8194 21.784 72.7474 21.144C73.6914 20.488 74.8514 19.992 76.2274 19.656L79.3474 18.888C79.7634 18.776 80.1154 18.8 80.4034 18.96C80.6914 19.104 80.8754 19.376 80.9554 19.776C81.0354 20.176 80.9714 20.52 80.7634 20.808C80.5554 21.08 80.2354 21.264 79.8034 21.36L76.4434 22.152C75.6434 22.344 74.9714 22.648 74.4274 23.064C73.8834 23.464 73.4674 23.968 73.1794 24.576C72.9074 25.184 72.7714 25.888 72.7714 26.688V27.984H72.3634C72.5234 27.296 72.7954 26.68 73.1794 26.136C73.5794 25.592 74.0914 25.168 74.7154 24.864C75.3394 24.544 76.0674 24.384 76.8994 24.384C77.8754 24.384 78.7394 24.624 79.4914 25.104C80.2594 25.568 80.8594 26.232 81.2914 27.096C81.7234 27.96 81.9394 28.992 81.9394 30.192C81.9394 31.424 81.6914 32.496 81.1954 33.408C80.7154 34.304 80.0354 35 79.1554 35.496C78.2754 35.992 77.2434 36.24 76.0594 36.24ZM75.9394 33.96C76.5794 33.96 77.1154 33.824 77.5474 33.552C77.9954 33.264 78.3314 32.848 78.5554 32.304C78.7954 31.76 78.9154 31.096 78.9154 30.312C78.9154 29.144 78.6514 28.248 78.1234 27.624C77.6114 26.984 76.8834 26.664 75.9394 26.664C75.3154 26.664 74.7794 26.808 74.3314 27.096C73.8834 27.368 73.5394 27.768 73.2994 28.296C73.0754 28.824 72.9634 29.456 72.9634 30.192C72.9634 31.424 73.2194 32.36 73.7314 33C74.2594 33.64 74.9954 33.96 75.9394 33.96ZM86.2316 36.192C85.7516 36.192 85.3756 36.064 85.1036 35.808C84.8476 35.536 84.7196 35.152 84.7196 34.656V25.584C84.7196 25.072 84.8476 24.696 85.1036 24.456C85.3756 24.2 85.7516 24.072 86.2316 24.072C86.7116 24.072 87.0796 24.2 87.3356 24.456C87.5916 24.696 87.7196 25.072 87.7196 25.584V28.8H92.9036V25.584C92.9036 25.072 93.0316 24.696 93.2876 24.456C93.5436 24.2 93.9116 24.072 94.3916 24.072C94.8716 24.072 95.2396 24.2 95.4956 24.456C95.7676 24.696 95.9036 25.072 95.9036 25.584V34.656C95.9036 35.152 95.7676 35.536 95.4956 35.808C95.2396 36.064 94.8716 36.192 94.3916 36.192C93.9116 36.192 93.5436 36.064 93.2876 35.808C93.0316 35.536 92.9036 35.152 92.9036 34.656V31.152H87.7196V34.656C87.7196 35.152 87.5916 35.536 87.3356 35.808C87.0956 36.064 86.7276 36.192 86.2316 36.192ZM100.809 36C100.329 36 99.9612 35.872 99.7052 35.616C99.4492 35.36 99.3212 34.992 99.3212 34.512V25.584C99.3212 25.072 99.4492 24.696 99.7052 24.456C99.9772 24.2 100.353 24.072 100.833 24.072C101.313 24.072 101.681 24.2 101.937 24.456C102.193 24.696 102.321 25.072 102.321 25.584V28.152H105.417C106.969 28.152 108.137 28.48 108.921 29.136C109.721 29.792 110.121 30.752 110.121 32.016C110.121 32.816 109.929 33.52 109.545 34.128C109.161 34.72 108.617 35.184 107.913 35.52C107.225 35.84 106.393 36 105.417 36H100.809ZM102.321 34.032H104.961C105.713 34.032 106.297 33.872 106.713 33.552C107.129 33.216 107.337 32.712 107.337 32.04C107.337 31.384 107.129 30.904 106.713 30.6C106.297 30.28 105.713 30.12 104.961 30.12H102.321V34.032ZM113.025 36.192C112.545 36.192 112.177 36.064 111.921 35.808C111.665 35.536 111.537 35.152 111.537 34.656V25.584C111.537 25.072 111.665 24.696 111.921 24.456C112.177 24.2 112.545 24.072 113.025 24.072C113.505 24.072 113.873 24.2 114.129 24.456C114.401 24.696 114.537 25.072 114.537 25.584V34.656C114.537 35.68 114.033 36.192 113.025 36.192ZM123.762 36.24C122.434 36.24 121.29 35.992 120.33 35.496C119.37 35 118.626 34.296 118.098 33.384C117.586 32.472 117.33 31.392 117.33 30.144C117.33 28.928 117.578 27.864 118.074 26.952C118.586 26.04 119.282 25.328 120.162 24.816C121.058 24.288 122.074 24.024 123.21 24.024C124.042 24.024 124.786 24.16 125.442 24.432C126.114 24.704 126.682 25.096 127.146 25.608C127.626 26.12 127.986 26.744 128.226 27.48C128.482 28.2 128.61 29.016 128.61 29.928C128.61 30.216 128.506 30.44 128.298 30.6C128.106 30.744 127.826 30.816 127.458 30.816L119.754 30.816V29.088L126.498 29.088L126.114 29.448C126.114 28.712 126.002 28.096 125.778 27.6C125.57 27.104 125.258 26.728 124.842 26.472C124.442 26.2 123.938 26.064 123.33 26.064C122.658 26.064 122.082 26.224 121.602 26.544C121.138 26.848 120.778 27.288 120.522 27.864C120.282 28.424 120.162 29.096 120.162 29.88V30.048C120.162 31.36 120.466 32.344 121.074 33C121.698 33.64 122.61 33.96 123.81 33.96C124.226 33.96 124.69 33.912 125.202 33.816C125.73 33.704 126.226 33.52 126.69 33.264C127.026 33.072 127.322 32.992 127.578 33.024C127.834 33.04 128.034 33.128 128.178 33.288C128.338 33.448 128.434 33.648 128.466 33.888C128.498 34.112 128.45 34.344 128.322 34.584C128.21 34.824 128.01 35.032 127.722 35.208C127.162 35.56 126.514 35.824 125.778 36C125.058 36.16 124.386 36.24 123.762 36.24ZM141.694 36.24C140.846 36.24 140.086 36.08 139.414 35.76C138.758 35.424 138.238 34.976 137.854 34.416C137.486 33.856 137.302 33.224 137.302 32.52C137.302 31.656 137.526 30.976 137.974 30.48C138.422 29.968 139.15 29.6 140.158 29.376C141.166 29.152 142.518 29.04 144.214 29.04H145.414V30.768H144.238C143.246 30.768 142.454 30.816 141.862 30.912C141.27 31.008 140.846 31.176 140.59 31.416C140.35 31.64 140.23 31.96 140.23 32.376C140.23 32.904 140.414 33.336 140.782 33.672C141.15 34.008 141.662 34.176 142.318 34.176C142.846 34.176 143.31 34.056 143.71 33.816C144.126 33.56 144.454 33.216 144.694 32.784C144.934 32.352 145.054 31.856 145.054 31.296V28.536C145.054 27.736 144.878 27.16 144.526 26.808C144.174 26.456 143.582 26.28 142.75 26.28C142.286 26.28 141.782 26.336 141.238 26.448C140.71 26.56 140.15 26.752 139.558 27.024C139.254 27.168 138.982 27.208 138.742 27.144C138.518 27.08 138.342 26.952 138.214 26.76C138.086 26.552 138.022 26.328 138.022 26.088C138.022 25.848 138.086 25.616 138.214 25.392C138.342 25.152 138.558 24.976 138.862 24.864C139.598 24.56 140.302 24.344 140.974 24.216C141.662 24.088 142.286 24.024 142.846 24.024C143.998 24.024 144.942 24.2 145.678 24.552C146.43 24.904 146.99 25.44 147.358 26.16C147.726 26.864 147.91 27.776 147.91 28.896V34.656C147.91 35.152 147.79 35.536 147.55 35.808C147.31 36.064 146.966 36.192 146.518 36.192C146.07 36.192 145.718 36.064 145.462 35.808C145.222 35.536 145.102 35.152 145.102 34.656V33.504H145.294C145.182 34.064 144.958 34.552 144.622 34.968C144.302 35.368 143.894 35.68 143.398 35.904C142.902 36.128 142.334 36.24 141.694 36.24ZM151.475 39.312C151.075 39.312 150.755 39.192 150.515 38.952C150.291 38.728 150.179 38.4 150.179 37.968V35.04C150.179 34.112 150.643 33.648 151.571 33.648H152.915L151.139 34.272C151.555 33.712 151.883 33.128 152.123 32.52C152.363 31.912 152.539 31.216 152.651 30.432C152.763 29.632 152.819 28.688 152.819 27.6V25.944C152.819 25.4 152.963 24.984 153.251 24.696C153.539 24.408 153.955 24.264 154.499 24.264H160.283C160.827 24.264 161.243 24.408 161.531 24.696C161.819 24.984 161.963 25.4 161.963 25.944V35.04L160.571 33.648H162.491C162.939 33.648 163.283 33.768 163.523 34.008C163.763 34.232 163.883 34.576 163.883 35.04V37.968C163.883 38.864 163.459 39.312 162.611 39.312C162.195 39.312 161.875 39.192 161.651 38.952C161.443 38.728 161.339 38.4 161.339 37.968V36H152.723V37.968C152.723 38.864 152.307 39.312 151.475 39.312ZM154.235 33.648H159.155V26.568H155.387V28.296C155.387 29.304 155.283 30.28 155.075 31.224C154.883 32.168 154.603 32.976 154.235 33.648ZM167.415 36.192C166.999 36.192 166.671 36.072 166.431 35.832C166.207 35.576 166.095 35.224 166.095 34.776V25.704C166.095 25.352 166.143 25.056 166.239 24.816C166.335 24.576 166.487 24.392 166.695 24.264C166.903 24.136 167.159 24.072 167.463 24.072C167.767 24.072 168.015 24.128 168.207 24.24C168.415 24.336 168.591 24.464 168.735 24.624C168.879 24.784 168.999 24.96 169.095 25.152L172.623 31.2L176.151 25.152C176.263 24.944 176.383 24.76 176.511 24.6C176.655 24.44 176.823 24.312 177.015 24.216C177.223 24.12 177.471 24.072 177.759 24.072C178.223 24.072 178.567 24.216 178.791 24.504C179.015 24.776 179.127 25.176 179.127 25.704V34.776C179.127 35.224 179.015 35.576 178.791 35.832C178.567 36.072 178.239 36.192 177.807 36.192C177.391 36.192 177.063 36.072 176.823 35.832C176.599 35.576 176.487 35.224 176.487 34.776V27.72H177.063L173.631 33.576C173.551 33.72 173.431 33.864 173.271 34.008C173.127 34.136 172.911 34.2 172.623 34.2C172.319 34.2 172.095 34.128 171.951 33.984C171.807 33.84 171.695 33.704 171.615 33.576L168.159 27.72H168.735V34.776C168.735 35.224 168.623 35.576 168.399 35.832C168.175 36.072 167.847 36.192 167.415 36.192ZM183.916 36.192C183.612 36.192 183.356 36.136 183.148 36.024C182.94 35.912 182.78 35.736 182.668 35.496C182.572 35.256 182.524 34.952 182.524 34.584V25.512C182.524 25.048 182.644 24.696 182.884 24.456C183.124 24.2 183.46 24.072 183.892 24.072C184.324 24.072 184.652 24.2 184.876 24.456C185.116 24.696 185.236 25.048 185.236 25.512V32.928H184.612L190.54 25.032C190.716 24.808 190.932 24.592 191.188 24.384C191.444 24.176 191.796 24.072 192.244 24.072C192.548 24.072 192.796 24.128 192.988 24.24C193.196 24.352 193.348 24.528 193.444 24.768C193.556 24.992 193.612 25.288 193.612 25.656V34.752C193.612 35.2 193.492 35.552 193.252 35.808C193.028 36.064 192.7 36.192 192.268 36.192C191.82 36.192 191.476 36.064 191.236 35.808C191.012 35.552 190.9 35.2 190.9 34.752V27.312H191.548L185.596 35.232C185.436 35.456 185.228 35.672 184.972 35.88C184.732 36.088 184.38 36.192 183.916 36.192ZM198.521 36.192C198.041 36.192 197.665 36.064 197.393 35.808C197.137 35.536 197.009 35.152 197.009 34.656V25.584C197.009 25.072 197.137 24.696 197.393 24.456C197.665 24.2 198.041 24.072 198.521 24.072C199.001 24.072 199.369 24.2 199.625 24.456C199.881 24.696 200.009 25.072 200.009 25.584V28.8H205.193V25.584C205.193 25.072 205.321 24.696 205.577 24.456C205.833 24.2 206.201 24.072 206.681 24.072C207.161 24.072 207.529 24.2 207.785 24.456C208.057 24.696 208.193 25.072 208.193 25.584V34.656C208.193 35.152 208.057 35.536 207.785 35.808C207.529 36.064 207.161 36.192 206.681 36.192C206.201 36.192 205.833 36.064 205.577 35.808C205.321 35.536 205.193 35.152 205.193 34.656V31.152H200.009V34.656C200.009 35.152 199.881 35.536 199.625 35.808C199.385 36.064 199.017 36.192 198.521 36.192ZM213.122 36.192C212.642 36.192 212.266 36.064 211.994 35.808C211.738 35.536 211.61 35.152 211.61 34.656V25.632C211.61 25.136 211.738 24.76 211.994 24.504C212.266 24.232 212.642 24.096 213.122 24.096C213.602 24.096 213.97 24.232 214.226 24.504C214.482 24.76 214.61 25.136 214.61 25.632V28.824H216.314L219.314 24.792C219.538 24.488 219.794 24.296 220.082 24.216C220.37 24.12 220.642 24.112 220.898 24.192C221.17 24.272 221.386 24.416 221.546 24.624C221.722 24.832 221.81 25.08 221.81 25.368C221.826 25.64 221.722 25.928 221.498 26.232L218.642 30.144L217.994 29.184C218.426 29.232 218.81 29.352 219.146 29.544C219.498 29.736 219.818 30.008 220.106 30.36C220.41 30.696 220.706 31.12 220.994 31.632L222.41 34.152C222.602 34.488 222.666 34.8 222.602 35.088C222.554 35.36 222.418 35.592 222.194 35.784C221.986 35.976 221.738 36.096 221.45 36.144C221.162 36.192 220.874 36.152 220.586 36.024C220.314 35.912 220.082 35.688 219.89 35.352L218.282 32.544C218.074 32.176 217.866 31.896 217.658 31.704C217.466 31.496 217.242 31.352 216.986 31.272C216.746 31.192 216.45 31.152 216.098 31.152H214.61V34.656C214.61 35.152 214.482 35.536 214.226 35.808C213.97 36.064 213.602 36.192 213.122 36.192ZM226.409 36.192C226.105 36.192 225.849 36.136 225.641 36.024C225.433 35.912 225.273 35.736 225.161 35.496C225.065 35.256 225.017 34.952 225.017 34.584V25.512C225.017 25.048 225.137 24.696 225.377 24.456C225.617 24.2 225.953 24.072 226.385 24.072C226.817 24.072 227.145 24.2 227.369 24.456C227.609 24.696 227.729 25.048 227.729 25.512V32.928H227.105L233.033 25.032C233.209 24.808 233.425 24.592 233.681 24.384C233.937 24.176 234.289 24.072 234.737 24.072C235.041 24.072 235.289 24.128 235.481 24.24C235.689 24.352 235.841 24.528 235.937 24.768C236.049 24.992 236.105 25.288 236.105 25.656V34.752C236.105 35.2 235.985 35.552 235.745 35.808C235.521 36.064 235.193 36.192 234.761 36.192C234.313 36.192 233.969 36.064 233.729 35.808C233.505 35.552 233.393 35.2 233.393 34.752V27.312H234.041L228.089 35.232C227.929 35.456 227.721 35.672 227.465 35.88C227.225 36.088 226.873 36.192 226.409 36.192Z" fill="#303030"/>
</svg>
