<svg width="285" height="56" viewBox="0 0 285 56" fill="none" xmlns="http://www.w3.org/2000/svg">
<rect width="285" height="56" rx="28" fill="#F46B5C"/>
<path d="M27.144 36.192C26.936 36.192 26.752 36.16 26.592 36.096C26.432 36.032 26.296 35.936 26.184 35.808C26.072 35.664 25.984 35.496 25.92 35.304C25.872 35.112 25.848 34.888 25.848 34.632V20.352C25.848 19.888 25.968 19.528 26.208 19.272C26.464 19.016 26.824 18.888 27.288 18.888C27.752 18.888 28.104 19.016 28.344 19.272C28.584 19.528 28.704 19.888 28.704 20.352V31.704H28.152L37.272 19.776C37.512 19.456 37.744 19.232 37.968 19.104C38.192 18.96 38.488 18.888 38.856 18.888C39.112 18.888 39.328 18.944 39.504 19.056C39.696 19.168 39.84 19.336 39.936 19.56C40.048 19.768 40.104 20.016 40.104 20.304V34.704C40.104 35.184 39.984 35.552 39.744 35.808C39.504 36.064 39.152 36.192 38.688 36.192C38.224 36.192 37.864 36.064 37.608 35.808C37.368 35.552 37.248 35.184 37.248 34.704V23.352H37.776L28.68 35.28C28.424 35.6 28.192 35.832 27.984 35.976C27.792 36.12 27.512 36.192 27.144 36.192ZM45.1691 36.192C44.6891 36.192 44.3131 36.064 44.0411 35.808C43.7851 35.536 43.6571 35.152 43.6571 34.656V25.584C43.6571 25.072 43.7851 24.696 44.0411 24.456C44.3131 24.2 44.6891 24.072 45.1691 24.072C45.6491 24.072 46.0171 24.2 46.2731 24.456C46.5291 24.696 46.6571 25.072 46.6571 25.584V28.8H51.8411V25.584C51.8411 25.072 51.9691 24.696 52.2251 24.456C52.4811 24.2 52.8491 24.072 53.3291 24.072C53.8091 24.072 54.1771 24.2 54.4331 24.456C54.7051 24.696 54.8411 25.072 54.8411 25.584V34.656C54.8411 35.152 54.7051 35.536 54.4331 35.808C54.1771 36.064 53.8091 36.192 53.3291 36.192C52.8491 36.192 52.4811 36.064 52.2251 35.808C51.9691 35.536 51.8411 35.152 51.8411 34.656V31.152H46.6571V34.656C46.6571 35.152 46.5291 35.536 46.2731 35.808C46.0331 36.064 45.6651 36.192 45.1691 36.192ZM62.2427 36.192C61.7627 36.192 61.3867 36.064 61.1147 35.808C60.8587 35.536 60.7307 35.152 60.7307 34.656V26.616H57.8027C56.9387 26.616 56.5067 26.224 56.5067 25.44C56.5067 25.072 56.6187 24.784 56.8427 24.576C57.0827 24.368 57.4027 24.264 57.8027 24.264H66.6587C67.5227 24.264 67.9547 24.656 67.9547 25.44C67.9547 25.824 67.8427 26.12 67.6187 26.328C67.3947 26.52 67.0747 26.616 66.6587 26.616H63.7307V34.656C63.7307 35.152 63.6027 35.536 63.3467 35.808C63.1067 36.064 62.7387 36.192 62.2427 36.192ZM75.2933 36.24C73.9653 36.24 72.8213 35.992 71.8613 35.496C70.9013 35 70.1573 34.296 69.6293 33.384C69.1173 32.472 68.8613 31.392 68.8613 30.144C68.8613 28.928 69.1093 27.864 69.6053 26.952C70.1173 26.04 70.8133 25.328 71.6933 24.816C72.5893 24.288 73.6053 24.024 74.7413 24.024C75.5733 24.024 76.3173 24.16 76.9733 24.432C77.6453 24.704 78.2133 25.096 78.6773 25.608C79.1573 26.12 79.5173 26.744 79.7573 27.48C80.0133 28.2 80.1413 29.016 80.1413 29.928C80.1413 30.216 80.0373 30.44 79.8293 30.6C79.6373 30.744 79.3573 30.816 78.9893 30.816H71.2853V29.088H78.0293L77.6453 29.448C77.6453 28.712 77.5333 28.096 77.3093 27.6C77.1013 27.104 76.7893 26.728 76.3733 26.472C75.9733 26.2 75.4693 26.064 74.8613 26.064C74.1893 26.064 73.6133 26.224 73.1333 26.544C72.6693 26.848 72.3093 27.288 72.0533 27.864C71.8133 28.424 71.6933 29.096 71.6933 29.88V30.048C71.6933 31.36 71.9973 32.344 72.6053 33C73.2293 33.64 74.1413 33.96 75.3413 33.96C75.7573 33.96 76.2213 33.912 76.7333 33.816C77.2613 33.704 77.7573 33.52 78.2213 33.264C78.5573 33.072 78.8533 32.992 79.1093 33.024C79.3653 33.04 79.5653 33.128 79.7093 33.288C79.8693 33.448 79.9653 33.648 79.9973 33.888C80.0293 34.112 79.9813 34.344 79.8533 34.584C79.7413 34.824 79.5413 35.032 79.2533 35.208C78.6933 35.56 78.0453 35.824 77.3093 36C76.5893 36.16 75.9173 36.24 75.2933 36.24ZM84.3332 40.512C83.8532 40.512 83.4852 40.384 83.2292 40.128C82.9732 39.872 82.8452 39.496 82.8452 39V25.584C82.8452 25.088 82.9732 24.712 83.2292 24.456C83.4852 24.2 83.8452 24.072 84.3092 24.072C84.7892 24.072 85.1572 24.2 85.4132 24.456C85.6692 24.712 85.7972 25.088 85.7972 25.584V27.456L85.5332 26.736C85.7732 25.92 86.2612 25.264 86.9972 24.768C87.7492 24.272 88.6212 24.024 89.6132 24.024C90.6372 24.024 91.5332 24.272 92.3012 24.768C93.0852 25.264 93.6932 25.968 94.1252 26.88C94.5572 27.776 94.7732 28.856 94.7732 30.12C94.7732 31.368 94.5572 32.456 94.1252 33.384C93.6932 34.296 93.0932 35 92.3252 35.496C91.5572 35.992 90.6532 36.24 89.6132 36.24C88.6372 36.24 87.7812 36 87.0452 35.52C86.3092 35.024 85.8132 34.384 85.5572 33.6H85.8452V39C85.8452 39.496 85.7092 39.872 85.4372 40.128C85.1812 40.384 84.8132 40.512 84.3332 40.512ZM88.7732 33.96C89.3652 33.96 89.8852 33.816 90.3332 33.528C90.7812 33.24 91.1252 32.816 91.3652 32.256C91.6212 31.68 91.7492 30.968 91.7492 30.12C91.7492 28.84 91.4772 27.888 90.9332 27.264C90.3892 26.624 89.6692 26.304 88.7732 26.304C88.1812 26.304 87.6612 26.448 87.2132 26.736C86.7652 27.008 86.4132 27.432 86.1572 28.008C85.9172 28.568 85.7972 29.272 85.7972 30.12C85.7972 31.384 86.0692 32.344 86.6132 33C87.1572 33.64 87.8772 33.96 88.7732 33.96ZM99.0754 36.192C98.5954 36.192 98.2194 36.064 97.9474 35.808C97.6914 35.536 97.5634 35.152 97.5634 34.656V25.584C97.5634 25.072 97.6914 24.696 97.9474 24.456C98.2194 24.2 98.5954 24.072 99.0754 24.072C99.5554 24.072 99.9234 24.2 100.179 24.456C100.435 24.696 100.563 25.072 100.563 25.584V28.8H105.747V25.584C105.747 25.072 105.875 24.696 106.131 24.456C106.387 24.2 106.755 24.072 107.235 24.072C107.715 24.072 108.083 24.2 108.339 24.456C108.611 24.696 108.747 25.072 108.747 25.584V34.656C108.747 35.152 108.611 35.536 108.339 35.808C108.083 36.064 107.715 36.192 107.235 36.192C106.755 36.192 106.387 36.064 106.131 35.808C105.875 35.536 105.747 35.152 105.747 34.656V31.152H100.563V34.656C100.563 35.152 100.435 35.536 100.179 35.808C99.9394 36.064 99.5714 36.192 99.0754 36.192ZM117.973 36.24C116.645 36.24 115.501 35.992 114.541 35.496C113.581 35 112.837 34.296 112.309 33.384C111.797 32.472 111.541 31.392 111.541 30.144C111.541 28.928 111.789 27.864 112.285 26.952C112.797 26.04 113.493 25.328 114.373 24.816C115.269 24.288 116.285 24.024 117.421 24.024C118.253 24.024 118.997 24.16 119.653 24.432C120.325 24.704 120.893 25.096 121.357 25.608C121.837 26.12 122.197 26.744 122.437 27.48C122.693 28.2 122.821 29.016 122.821 29.928C122.821 30.216 122.717 30.44 122.509 30.6C122.317 30.744 122.037 30.816 121.669 30.816H113.965V29.088H120.709L120.325 29.448C120.325 28.712 120.213 28.096 119.989 27.6C119.781 27.104 119.469 26.728 119.053 26.472C118.653 26.2 118.149 26.064 117.541 26.064C116.869 26.064 116.293 26.224 115.813 26.544C115.349 26.848 114.989 27.288 114.733 27.864C114.493 28.424 114.373 29.096 114.373 29.88V30.048C114.373 31.36 114.677 32.344 115.285 33C115.909 33.64 116.821 33.96 118.021 33.96C118.437 33.96 118.901 33.912 119.413 33.816C119.941 33.704 120.437 33.52 120.901 33.264C121.237 33.072 121.533 32.992 121.789 33.024C122.045 33.04 122.245 33.128 122.389 33.288C122.549 33.448 122.645 33.648 122.677 33.888C122.709 34.112 122.661 34.344 122.533 34.584C122.421 34.824 122.221 35.032 121.933 35.208C121.373 35.56 120.725 35.824 119.989 36C119.269 36.16 118.597 36.24 117.973 36.24ZM129.485 36.192C129.005 36.192 128.629 36.064 128.357 35.808C128.101 35.536 127.973 35.152 127.973 34.656V26.616H125.045C124.181 26.616 123.749 26.224 123.749 25.44C123.749 25.072 123.861 24.784 124.085 24.576C124.325 24.368 124.645 24.264 125.045 24.264H133.901C134.765 24.264 135.197 24.656 135.197 25.44C135.197 25.824 135.085 26.12 134.861 26.328C134.637 26.52 134.317 26.616 133.901 26.616H130.973V34.656C130.973 35.152 130.845 35.536 130.589 35.808C130.349 36.064 129.981 36.192 129.485 36.192ZM137.805 30.768C137.453 30.768 137.157 30.656 136.917 30.432C136.693 30.192 136.581 29.904 136.581 29.568C136.581 29.216 136.693 28.928 136.917 28.704C137.157 28.48 137.453 28.368 137.805 28.368H142.917C143.253 28.368 143.533 28.48 143.757 28.704C143.997 28.928 144.117 29.216 144.117 29.568C144.117 29.904 143.997 30.192 143.757 30.432C143.533 30.656 143.253 30.768 142.917 30.768H137.805ZM148.571 36.192C148.155 36.192 147.827 36.072 147.587 35.832C147.363 35.576 147.251 35.224 147.251 34.776V25.704C147.251 25.352 147.299 25.056 147.395 24.816C147.491 24.576 147.643 24.392 147.851 24.264C148.059 24.136 148.315 24.072 148.619 24.072C148.923 24.072 149.171 24.128 149.363 24.24C149.571 24.336 149.747 24.464 149.891 24.624C150.035 24.784 150.155 24.96 150.251 25.152L153.779 31.2L157.307 25.152C157.419 24.944 157.539 24.76 157.667 24.6C157.811 24.44 157.979 24.312 158.171 24.216C158.379 24.12 158.627 24.072 158.915 24.072C159.379 24.072 159.723 24.216 159.947 24.504C160.171 24.776 160.283 25.176 160.283 25.704V34.776C160.283 35.224 160.171 35.576 159.947 35.832C159.723 36.072 159.395 36.192 158.963 36.192C158.547 36.192 158.219 36.072 157.979 35.832C157.755 35.576 157.643 35.224 157.643 34.776V27.72H158.219L154.787 33.576C154.707 33.72 154.587 33.864 154.427 34.008C154.283 34.136 154.067 34.2 153.779 34.2C153.475 34.2 153.251 34.128 153.107 33.984C152.963 33.84 152.851 33.704 152.771 33.576L149.315 27.72H149.891V34.776C149.891 35.224 149.779 35.576 149.555 35.832C149.331 36.072 149.003 36.192 148.571 36.192ZM167.569 36.24C166.721 36.24 165.961 36.08 165.289 35.76C164.633 35.424 164.113 34.976 163.729 34.416C163.361 33.856 163.177 33.224 163.177 32.52C163.177 31.656 163.401 30.976 163.849 30.48C164.297 29.968 165.025 29.6 166.033 29.376C167.041 29.152 168.393 29.04 170.089 29.04H171.289V30.768H170.113C169.121 30.768 168.329 30.816 167.737 30.912C167.145 31.008 166.721 31.176 166.465 31.416C166.225 31.64 166.105 31.96 166.105 32.376C166.105 32.904 166.289 33.336 166.657 33.672C167.025 34.008 167.537 34.176 168.193 34.176C168.721 34.176 169.185 34.056 169.585 33.816C170.001 33.56 170.329 33.216 170.569 32.784C170.809 32.352 170.929 31.856 170.929 31.296V28.536C170.929 27.736 170.753 27.16 170.401 26.808C170.049 26.456 169.457 26.28 168.625 26.28C168.161 26.28 167.657 26.336 167.113 26.448C166.585 26.56 166.025 26.752 165.433 27.024C165.129 27.168 164.857 27.208 164.617 27.144C164.393 27.08 164.217 26.952 164.089 26.76C163.961 26.552 163.897 26.328 163.897 26.088C163.897 25.848 163.961 25.616 164.089 25.392C164.217 25.152 164.433 24.976 164.737 24.864C165.473 24.56 166.177 24.344 166.849 24.216C167.537 24.088 168.161 24.024 168.721 24.024C169.873 24.024 170.817 24.2 171.553 24.552C172.305 24.904 172.865 25.44 173.233 26.16C173.601 26.864 173.785 27.776 173.785 28.896V34.656C173.785 35.152 173.665 35.536 173.425 35.808C173.185 36.064 172.841 36.192 172.393 36.192C171.945 36.192 171.593 36.064 171.337 35.808C171.097 35.536 170.977 35.152 170.977 34.656V33.504H171.169C171.057 34.064 170.833 34.552 170.497 34.968C170.177 35.368 169.769 35.68 169.273 35.904C168.777 36.128 168.209 36.24 167.569 36.24ZM178.646 36.192C178.166 36.192 177.79 36.056 177.518 35.784C177.262 35.512 177.134 35.128 177.134 34.632V25.944C177.134 25.4 177.278 24.984 177.566 24.696C177.854 24.408 178.27 24.264 178.814 24.264H184.934C185.366 24.264 185.686 24.36 185.894 24.552C186.102 24.744 186.206 25.04 186.206 25.44C186.206 25.824 186.102 26.12 185.894 26.328C185.686 26.52 185.366 26.616 184.934 26.616H180.134V34.632C180.134 35.672 179.638 36.192 178.646 36.192ZM191.99 36.24C191.142 36.24 190.382 36.08 189.71 35.76C189.054 35.424 188.534 34.976 188.15 34.416C187.782 33.856 187.598 33.224 187.598 32.52C187.598 31.656 187.822 30.976 188.27 30.48C188.718 29.968 189.446 29.6 190.454 29.376C191.462 29.152 192.814 29.04 194.51 29.04H195.71V30.768H194.534C193.542 30.768 192.75 30.816 192.158 30.912C191.566 31.008 191.142 31.176 190.886 31.416C190.646 31.64 190.526 31.96 190.526 32.376C190.526 32.904 190.71 33.336 191.078 33.672C191.446 34.008 191.958 34.176 192.614 34.176C193.142 34.176 193.606 34.056 194.006 33.816C194.422 33.56 194.75 33.216 194.99 32.784C195.23 32.352 195.35 31.856 195.35 31.296V28.536C195.35 27.736 195.174 27.16 194.822 26.808C194.47 26.456 193.878 26.28 193.046 26.28C192.582 26.28 192.078 26.336 191.534 26.448C191.006 26.56 190.446 26.752 189.854 27.024C189.55 27.168 189.278 27.208 189.038 27.144C188.814 27.08 188.638 26.952 188.51 26.76C188.382 26.552 188.318 26.328 188.318 26.088C188.318 25.848 188.382 25.616 188.51 25.392C188.638 25.152 188.854 24.976 189.158 24.864C189.894 24.56 190.598 24.344 191.27 24.216C191.958 24.088 192.582 24.024 193.142 24.024C194.294 24.024 195.238 24.2 195.974 24.552C196.726 24.904 197.286 25.44 197.654 26.16C198.022 26.864 198.206 27.776 198.206 28.896V34.656C198.206 35.152 198.086 35.536 197.846 35.808C197.606 36.064 197.262 36.192 196.814 36.192C196.366 36.192 196.014 36.064 195.758 35.808C195.518 35.536 195.398 35.152 195.398 34.656V33.504H195.59C195.478 34.064 195.254 34.552 194.918 34.968C194.598 35.368 194.19 35.68 193.694 35.904C193.198 36.128 192.63 36.24 191.99 36.24ZM205.9 36.24C205.084 36.24 204.292 36.16 203.524 36C202.756 35.856 202.068 35.64 201.46 35.352C201.172 35.208 200.964 35.032 200.836 34.824C200.708 34.6 200.644 34.376 200.644 34.152C200.66 33.912 200.732 33.704 200.86 33.528C201.004 33.352 201.196 33.24 201.436 33.192C201.676 33.144 201.956 33.2 202.276 33.36C202.788 33.6 203.356 33.784 203.98 33.912C204.62 34.024 205.236 34.08 205.828 34.08C206.852 34.08 207.58 33.96 208.012 33.72C208.444 33.464 208.66 33.08 208.66 32.568C208.66 32.104 208.492 31.752 208.156 31.512C207.82 31.272 207.34 31.152 206.716 31.152H204.58C204.212 31.152 203.924 31.056 203.716 30.864C203.508 30.656 203.404 30.384 203.404 30.048C203.404 29.712 203.508 29.456 203.716 29.28C203.924 29.088 204.212 28.992 204.58 28.992H206.428C206.988 28.992 207.428 28.88 207.748 28.656C208.068 28.416 208.228 28.08 208.228 27.648C208.228 27.184 208.036 26.824 207.652 26.568C207.284 26.312 206.612 26.184 205.636 26.184C205.076 26.184 204.532 26.24 204.004 26.352C203.476 26.448 202.956 26.608 202.444 26.832C202.06 26.992 201.732 27.024 201.46 26.928C201.204 26.816 201.02 26.632 200.908 26.376C200.796 26.12 200.788 25.856 200.884 25.584C200.98 25.312 201.196 25.096 201.532 24.936C202.236 24.616 202.964 24.384 203.716 24.24C204.484 24.096 205.292 24.024 206.14 24.024C207.708 24.024 208.9 24.32 209.716 24.912C210.548 25.488 210.964 26.296 210.964 27.336C210.964 28.072 210.716 28.696 210.22 29.208C209.724 29.704 209.06 30.008 208.228 30.12V29.784C209.22 29.848 209.996 30.136 210.556 30.648C211.116 31.16 211.396 31.848 211.396 32.712C211.396 33.784 210.924 34.64 209.98 35.28C209.036 35.92 207.676 36.24 205.9 36.24ZM215.416 36.192C215.112 36.192 214.856 36.136 214.648 36.024C214.44 35.912 214.28 35.736 214.168 35.496C214.072 35.256 214.024 34.952 214.024 34.584V25.512C214.024 25.048 214.144 24.696 214.384 24.456C214.624 24.2 214.96 24.072 215.392 24.072C215.824 24.072 216.152 24.2 216.376 24.456C216.616 24.696 216.736 25.048 216.736 25.512V32.928H216.112L222.04 25.032C222.216 24.808 222.432 24.592 222.688 24.384C222.944 24.176 223.296 24.072 223.744 24.072C224.048 24.072 224.296 24.128 224.488 24.24C224.696 24.352 224.848 24.528 224.944 24.768C225.056 24.992 225.112 25.288 225.112 25.656V34.752C225.112 35.2 224.992 35.552 224.752 35.808C224.528 36.064 224.2 36.192 223.768 36.192C223.32 36.192 222.976 36.064 222.736 35.808C222.512 35.552 222.4 35.2 222.4 34.752V27.312H223.048L217.096 35.232C216.936 35.456 216.728 35.672 216.472 35.88C216.232 36.088 215.88 36.192 215.416 36.192ZM230.021 36.192C229.541 36.192 229.165 36.064 228.893 35.808C228.637 35.536 228.509 35.152 228.509 34.656V25.584C228.509 25.072 228.637 24.696 228.893 24.456C229.165 24.2 229.541 24.072 230.021 24.072C230.501 24.072 230.869 24.2 231.125 24.456C231.381 24.696 231.509 25.072 231.509 25.584V28.8H236.693V25.584C236.693 25.072 236.821 24.696 237.077 24.456C237.333 24.2 237.701 24.072 238.181 24.072C238.661 24.072 239.029 24.2 239.285 24.456C239.557 24.696 239.693 25.072 239.693 25.584V34.656C239.693 35.152 239.557 35.536 239.285 35.808C239.029 36.064 238.661 36.192 238.181 36.192C237.701 36.192 237.333 36.064 237.077 35.808C236.821 35.536 236.693 35.152 236.693 34.656V31.152H231.509V34.656C231.509 35.152 231.381 35.536 231.125 35.808C230.885 36.064 230.517 36.192 230.021 36.192ZM244.598 36C244.118 36 243.75 35.872 243.494 35.616C243.238 35.36 243.11 34.992 243.11 34.512V25.584C243.11 25.072 243.238 24.696 243.494 24.456C243.766 24.2 244.142 24.072 244.622 24.072C245.102 24.072 245.47 24.2 245.726 24.456C245.982 24.696 246.11 25.072 246.11 25.584V28.152H249.206C250.758 28.152 251.926 28.48 252.71 29.136C253.51 29.792 253.91 30.752 253.91 32.016C253.91 32.816 253.718 33.52 253.334 34.128C252.95 34.72 252.406 35.184 251.702 35.52C251.014 35.84 250.182 36 249.206 36H244.598ZM246.11 34.032H248.75C249.502 34.032 250.086 33.872 250.502 33.552C250.918 33.216 251.126 32.712 251.126 32.04C251.126 31.384 250.918 30.904 250.502 30.6C250.086 30.28 249.502 30.12 248.75 30.12H246.11V34.032ZM256.814 36.192C256.334 36.192 255.966 36.064 255.71 35.808C255.454 35.536 255.326 35.152 255.326 34.656V25.584C255.326 25.072 255.454 24.696 255.71 24.456C255.966 24.2 256.334 24.072 256.814 24.072C257.294 24.072 257.662 24.2 257.918 24.456C258.19 24.696 258.326 25.072 258.326 25.584V34.656C258.326 35.68 257.822 36.192 256.814 36.192Z" fill="#303030"/>
</svg>
