<svg width="189" height="56" viewBox="0 0 189 56" fill="none" xmlns="http://www.w3.org/2000/svg">
<rect width="189" height="56" rx="28" fill="#F46B5C"/>
<path d="M27.144 36.192C26.936 36.192 26.752 36.16 26.592 36.096C26.432 36.032 26.296 35.936 26.184 35.808C26.072 35.664 25.984 35.496 25.92 35.304C25.872 35.112 25.848 34.888 25.848 34.632V20.352C25.848 19.888 25.968 19.528 26.208 19.272C26.464 19.016 26.824 18.888 27.288 18.888C27.752 18.888 28.104 19.016 28.344 19.272C28.584 19.528 28.704 19.888 28.704 20.352V31.704H28.152L37.272 19.776C37.512 19.456 37.744 19.232 37.968 19.104C38.192 18.96 38.488 18.888 38.856 18.888C39.112 18.888 39.328 18.944 39.504 19.056C39.696 19.168 39.84 19.336 39.936 19.56C40.048 19.768 40.104 20.016 40.104 20.304V34.704C40.104 35.184 39.984 35.552 39.744 35.808C39.504 36.064 39.152 36.192 38.688 36.192C38.224 36.192 37.864 36.064 37.608 35.808C37.368 35.552 37.248 35.184 37.248 34.704V23.352H37.776L28.68 35.28C28.424 35.6 28.192 35.832 27.984 35.976C27.792 36.12 27.512 36.192 27.144 36.192ZM45.1691 36.192C44.6891 36.192 44.3131 36.064 44.0411 35.808C43.7851 35.536 43.6571 35.152 43.6571 34.656V25.584C43.6571 25.072 43.7851 24.696 44.0411 24.456C44.3131 24.2 44.6891 24.072 45.1691 24.072C45.6491 24.072 46.0171 24.2 46.2731 24.456C46.5291 24.696 46.6571 25.072 46.6571 25.584V28.8H51.8411V25.584C51.8411 25.072 51.9691 24.696 52.2251 24.456C52.4811 24.2 52.8491 24.072 53.3291 24.072C53.8091 24.072 54.1771 24.2 54.4331 24.456C54.7051 24.696 54.8411 25.072 54.8411 25.584V34.656C54.8411 35.152 54.7051 35.536 54.4331 35.808C54.1771 36.064 53.8091 36.192 53.3291 36.192C52.8491 36.192 52.4811 36.064 52.2251 35.808C51.9691 35.536 51.8411 35.152 51.8411 34.656V31.152H46.6571V34.656C46.6571 35.152 46.5291 35.536 46.2731 35.808C46.0331 36.064 45.6651 36.192 45.1691 36.192ZM62.2427 36.192C61.7627 36.192 61.3867 36.064 61.1147 35.808C60.8587 35.536 60.7307 35.152 60.7307 34.656V26.616H57.8027C56.9387 26.616 56.5067 26.224 56.5067 25.44C56.5067 25.072 56.6187 24.784 56.8427 24.576C57.0827 24.368 57.4027 24.264 57.8027 24.264H66.6587C67.5227 24.264 67.9547 24.656 67.9547 25.44C67.9547 25.824 67.8427 26.12 67.6187 26.328C67.3947 26.52 67.0747 26.616 66.6587 26.616H63.7307V34.656C63.7307 35.152 63.6027 35.536 63.3467 35.808C63.1067 36.064 62.7387 36.192 62.2427 36.192ZM75.2933 36.24C73.9653 36.24 72.8213 35.992 71.8613 35.496C70.9013 35 70.1573 34.296 69.6293 33.384C69.1173 32.472 68.8613 31.392 68.8613 30.144C68.8613 28.928 69.1093 27.864 69.6053 26.952C70.1173 26.04 70.8133 25.328 71.6933 24.816C72.5893 24.288 73.6053 24.024 74.7413 24.024C75.5733 24.024 76.3173 24.16 76.9733 24.432C77.6453 24.704 78.2133 25.096 78.6773 25.608C79.1573 26.12 79.5173 26.744 79.7573 27.48C80.0133 28.2 80.1413 29.016 80.1413 29.928C80.1413 30.216 80.0373 30.44 79.8293 30.6C79.6373 30.744 79.3573 30.816 78.9893 30.816H71.2853V29.088H78.0293L77.6453 29.448C77.6453 28.712 77.5333 28.096 77.3093 27.6C77.1013 27.104 76.7893 26.728 76.3733 26.472C75.9733 26.2 75.4693 26.064 74.8613 26.064C74.1893 26.064 73.6133 26.224 73.1333 26.544C72.6693 26.848 72.3093 27.288 72.0533 27.864C71.8133 28.424 71.6933 29.096 71.6933 29.88V30.048C71.6933 31.36 71.9973 32.344 72.6053 33C73.2293 33.64 74.1413 33.96 75.3413 33.96C75.7573 33.96 76.2213 33.912 76.7333 33.816C77.2613 33.704 77.7573 33.52 78.2213 33.264C78.5573 33.072 78.8533 32.992 79.1093 33.024C79.3653 33.04 79.5653 33.128 79.7093 33.288C79.8693 33.448 79.9653 33.648 79.9973 33.888C80.0293 34.112 79.9813 34.344 79.8533 34.584C79.7413 34.824 79.5413 35.032 79.2533 35.208C78.6933 35.56 78.0453 35.824 77.3093 36C76.5893 36.16 75.9173 36.24 75.2933 36.24ZM84.3332 36.192C83.8532 36.192 83.4772 36.056 83.2052 35.784C82.9492 35.512 82.8212 35.128 82.8212 34.632V25.944C82.8212 25.4 82.9652 24.984 83.2532 24.696C83.5412 24.408 83.9572 24.264 84.5012 24.264H90.6212C91.0532 24.264 91.3732 24.36 91.5812 24.552C91.7892 24.744 91.8932 25.04 91.8932 25.44C91.8932 25.824 91.7892 26.12 91.5812 26.328C91.3732 26.52 91.0532 26.616 90.6212 26.616H85.8212V34.632C85.8212 35.672 85.3252 36.192 84.3332 36.192ZM95.3019 40.512C94.8219 40.512 94.4539 40.384 94.1979 40.128C93.9419 39.872 93.8139 39.496 93.8139 39V25.584C93.8139 25.088 93.9419 24.712 94.1979 24.456C94.4539 24.2 94.8139 24.072 95.2779 24.072C95.7579 24.072 96.1259 24.2 96.3819 24.456C96.6379 24.712 96.7659 25.088 96.7659 25.584V27.456L96.5019 26.736C96.7419 25.92 97.2299 25.264 97.9659 24.768C98.7179 24.272 99.5899 24.024 100.582 24.024C101.606 24.024 102.502 24.272 103.27 24.768C104.054 25.264 104.662 25.968 105.094 26.88C105.526 27.776 105.742 28.856 105.742 30.12C105.742 31.368 105.526 32.456 105.094 33.384C104.662 34.296 104.062 35 103.294 35.496C102.526 35.992 101.622 36.24 100.582 36.24C99.6059 36.24 98.7499 36 98.0139 35.52C97.2779 35.024 96.7819 34.384 96.5259 33.6H96.8139V39C96.8139 39.496 96.6779 39.872 96.4059 40.128C96.1499 40.384 95.7819 40.512 95.3019 40.512ZM99.7419 33.96C100.334 33.96 100.854 33.816 101.302 33.528C101.75 33.24 102.094 32.816 102.334 32.256C102.59 31.68 102.718 30.968 102.718 30.12C102.718 28.84 102.446 27.888 101.902 27.264C101.358 26.624 100.638 26.304 99.7419 26.304C99.1499 26.304 98.6299 26.448 98.1819 26.736C97.7339 27.008 97.3819 27.432 97.1259 28.008C96.8859 28.568 96.7659 29.272 96.7659 30.12C96.7659 31.384 97.0379 32.344 97.5819 33C98.1259 33.64 98.8459 33.96 99.7419 33.96ZM112.42 36.24C111.572 36.24 110.812 36.08 110.14 35.76C109.484 35.424 108.964 34.976 108.58 34.416C108.212 33.856 108.028 33.224 108.028 32.52C108.028 31.656 108.252 30.976 108.7 30.48C109.148 29.968 109.876 29.6 110.884 29.376C111.892 29.152 113.244 29.04 114.94 29.04H116.14V30.768H114.964C113.972 30.768 113.18 30.816 112.588 30.912C111.996 31.008 111.572 31.176 111.316 31.416C111.076 31.64 110.956 31.96 110.956 32.376C110.956 32.904 111.14 33.336 111.508 33.672C111.876 34.008 112.388 34.176 113.044 34.176C113.572 34.176 114.036 34.056 114.436 33.816C114.852 33.56 115.18 33.216 115.42 32.784C115.66 32.352 115.78 31.856 115.78 31.296V28.536C115.78 27.736 115.604 27.16 115.252 26.808C114.9 26.456 114.308 26.28 113.476 26.28C113.012 26.28 112.508 26.336 111.964 26.448C111.436 26.56 110.876 26.752 110.284 27.024C109.98 27.168 109.708 27.208 109.468 27.144C109.244 27.08 109.068 26.952 108.94 26.76C108.812 26.552 108.748 26.328 108.748 26.088C108.748 25.848 108.812 25.616 108.94 25.392C109.068 25.152 109.284 24.976 109.588 24.864C110.324 24.56 111.028 24.344 111.7 24.216C112.388 24.088 113.012 24.024 113.572 24.024C114.724 24.024 115.668 24.2 116.404 24.552C117.156 24.904 117.716 25.44 118.084 26.16C118.452 26.864 118.636 27.776 118.636 28.896V34.656C118.636 35.152 118.516 35.536 118.276 35.808C118.036 36.064 117.692 36.192 117.244 36.192C116.796 36.192 116.444 36.064 116.188 35.808C115.948 35.536 115.828 35.152 115.828 34.656V33.504H116.02C115.908 34.064 115.684 34.552 115.348 34.968C115.028 35.368 114.62 35.68 114.124 35.904C113.628 36.128 113.06 36.24 112.42 36.24ZM133.457 39.312C133.057 39.312 132.745 39.2 132.521 38.976C132.297 38.752 132.185 38.424 132.185 37.992V36H123.473C122.993 36 122.625 35.872 122.369 35.616C122.113 35.36 121.985 34.992 121.985 34.512V25.584C121.985 25.072 122.113 24.696 122.369 24.456C122.641 24.2 123.017 24.072 123.497 24.072C123.977 24.072 124.345 24.2 124.601 24.456C124.857 24.696 124.985 25.072 124.985 25.584V33.648H129.809V25.584C129.809 25.072 129.937 24.696 130.193 24.456C130.465 24.2 130.841 24.072 131.321 24.072C131.801 24.072 132.169 24.2 132.425 24.456C132.681 24.696 132.809 25.072 132.809 25.584V35.064L131.417 33.648H133.337C133.785 33.648 134.129 33.768 134.369 34.008C134.609 34.232 134.729 34.568 134.729 35.016V37.992C134.729 38.872 134.305 39.312 133.457 39.312ZM138.33 36.192C138.026 36.192 137.77 36.136 137.562 36.024C137.354 35.912 137.194 35.736 137.082 35.496C136.986 35.256 136.938 34.952 136.938 34.584V25.512C136.938 25.048 137.058 24.696 137.298 24.456C137.538 24.2 137.874 24.072 138.306 24.072C138.738 24.072 139.066 24.2 139.29 24.456C139.53 24.696 139.65 25.048 139.65 25.512V32.928H139.026L144.954 25.032C145.13 24.808 145.346 24.592 145.602 24.384C145.858 24.176 146.21 24.072 146.658 24.072C146.962 24.072 147.21 24.128 147.402 24.24C147.61 24.352 147.762 24.528 147.858 24.768C147.97 24.992 148.026 25.288 148.026 25.656V34.752C148.026 35.2 147.906 35.552 147.666 35.808C147.442 36.064 147.114 36.192 146.682 36.192C146.234 36.192 145.89 36.064 145.65 35.808C145.426 35.552 145.314 35.2 145.314 34.752V27.312H145.962L140.01 35.232C139.85 35.456 139.642 35.672 139.386 35.88C139.146 36.088 138.794 36.192 138.33 36.192ZM152.815 36.192C152.511 36.192 152.255 36.136 152.047 36.024C151.839 35.912 151.679 35.736 151.567 35.496C151.471 35.256 151.423 34.952 151.423 34.584V25.512C151.423 25.048 151.543 24.696 151.783 24.456C152.023 24.2 152.359 24.072 152.791 24.072C153.223 24.072 153.551 24.2 153.775 24.456C154.015 24.696 154.135 25.048 154.135 25.512V32.928H153.511L159.439 25.032C159.615 24.808 159.831 24.592 160.087 24.384C160.343 24.176 160.695 24.072 161.143 24.072C161.447 24.072 161.695 24.128 161.887 24.24C162.095 24.352 162.247 24.528 162.343 24.768C162.455 24.992 162.511 25.288 162.511 25.656V34.752C162.511 35.2 162.391 35.552 162.151 35.808C161.927 36.064 161.599 36.192 161.167 36.192C160.719 36.192 160.375 36.064 160.135 35.808C159.911 35.552 159.799 35.2 159.799 34.752V27.312H160.447L154.495 35.232C154.335 35.456 154.127 35.672 153.871 35.88C153.631 36.088 153.279 36.192 152.815 36.192Z" fill="#303030"/>
</svg>
