<svg width="161" height="56" viewBox="0 0 161 56" fill="none" xmlns="http://www.w3.org/2000/svg">
<rect width="161" height="56" rx="28" fill="#E9F45D"/>
<path d="M25.104 36.168C24.656 36.184 24.304 36.064 24.048 35.808C23.792 35.552 23.664 35.224 23.664 34.824C23.664 34.52 23.76 34.256 23.952 34.032C24.128 33.792 24.392 33.664 24.744 33.648L25.464 33.6C26.168 33.552 26.696 33.336 27.048 32.952C27.416 32.552 27.6 31.984 27.6 31.248V20.448C27.6 19.936 27.728 19.552 27.984 19.296C28.256 19.024 28.64 18.888 29.136 18.888C29.632 18.888 30.008 19.024 30.264 19.296C30.536 19.552 30.672 19.936 30.672 20.448V31.224C30.672 32.232 30.488 33.088 30.12 33.792C29.768 34.496 29.24 35.048 28.536 35.448C27.832 35.832 26.96 36.056 25.92 36.12L25.104 36.168ZM37.9084 36.24C37.0604 36.24 36.3004 36.08 35.6284 35.76C34.9724 35.424 34.4524 34.976 34.0684 34.416C33.7004 33.856 33.5164 33.224 33.5164 32.52C33.5164 31.656 33.7404 30.976 34.1884 30.48C34.6364 29.968 35.3644 29.6 36.3724 29.376C37.3804 29.152 38.7324 29.04 40.4284 29.04H41.6284V30.768H40.4524C39.4604 30.768 38.6684 30.816 38.0764 30.912C37.4844 31.008 37.0604 31.176 36.8044 31.416C36.5644 31.64 36.4444 31.96 36.4444 32.376C36.4444 32.904 36.6284 33.336 36.9964 33.672C37.3644 34.008 37.8764 34.176 38.5324 34.176C39.0604 34.176 39.5244 34.056 39.9244 33.816C40.3404 33.56 40.6684 33.216 40.9084 32.784C41.1484 32.352 41.2684 31.856 41.2684 31.296V28.536C41.2684 27.736 41.0924 27.16 40.7404 26.808C40.3884 26.456 39.7964 26.28 38.9644 26.28C38.5004 26.28 37.9964 26.336 37.4524 26.448C36.9244 26.56 36.3644 26.752 35.7724 27.024C35.4684 27.168 35.1964 27.208 34.9564 27.144C34.7324 27.08 34.5564 26.952 34.4284 26.76C34.3004 26.552 34.2364 26.328 34.2364 26.088C34.2364 25.848 34.3004 25.616 34.4284 25.392C34.5564 25.152 34.7724 24.976 35.0764 24.864C35.8124 24.56 36.5164 24.344 37.1884 24.216C37.8764 24.088 38.5004 24.024 39.0604 24.024C40.2124 24.024 41.1564 24.2 41.8924 24.552C42.6444 24.904 43.2044 25.44 43.5724 26.16C43.9404 26.864 44.1244 27.776 44.1244 28.896V34.656C44.1244 35.152 44.0044 35.536 43.7644 35.808C43.5244 36.064 43.1804 36.192 42.7324 36.192C42.2844 36.192 41.9324 36.064 41.6764 35.808C41.4364 35.536 41.3164 35.152 41.3164 34.656V33.504H41.5084C41.3964 34.064 41.1724 34.552 40.8364 34.968C40.5164 35.368 40.1084 35.68 39.6124 35.904C39.1164 36.128 38.5484 36.24 37.9084 36.24ZM51.8042 36.192C51.4042 36.192 51.0522 36.088 50.7482 35.88C50.4602 35.672 50.2202 35.352 50.0282 34.92L46.2122 26.064C46.0682 25.712 46.0122 25.384 46.0442 25.08C46.0922 24.776 46.2362 24.536 46.4762 24.36C46.7322 24.168 47.0762 24.072 47.5082 24.072C47.8762 24.072 48.1722 24.16 48.3962 24.336C48.6202 24.496 48.8202 24.808 48.9962 25.272L52.2362 33.36H51.5162L54.8522 25.248C55.0282 24.8 55.2282 24.496 55.4522 24.336C55.6922 24.16 56.0122 24.072 56.4122 24.072C56.7642 24.072 57.0442 24.168 57.2522 24.36C57.4602 24.536 57.5882 24.776 57.6362 25.08C57.6842 25.368 57.6282 25.688 57.4682 26.04L53.5802 34.92C53.4042 35.352 53.1642 35.672 52.8602 35.88C52.5722 36.088 52.2202 36.192 51.8042 36.192ZM63.3381 36.24C62.4901 36.24 61.7301 36.08 61.0581 35.76C60.4021 35.424 59.8821 34.976 59.4981 34.416C59.1301 33.856 58.9461 33.224 58.9461 32.52C58.9461 31.656 59.1701 30.976 59.6181 30.48C60.0661 29.968 60.7941 29.6 61.8021 29.376C62.8101 29.152 64.1621 29.04 65.8581 29.04H67.0581V30.768H65.8821C64.8901 30.768 64.0981 30.816 63.5061 30.912C62.9141 31.008 62.4901 31.176 62.2341 31.416C61.9941 31.64 61.8741 31.96 61.8741 32.376C61.8741 32.904 62.0581 33.336 62.4261 33.672C62.7941 34.008 63.3061 34.176 63.9621 34.176C64.4901 34.176 64.9541 34.056 65.3541 33.816C65.7701 33.56 66.0981 33.216 66.3381 32.784C66.5781 32.352 66.6981 31.856 66.6981 31.296V28.536C66.6981 27.736 66.5221 27.16 66.1701 26.808C65.8181 26.456 65.2261 26.28 64.3941 26.28C63.9301 26.28 63.4261 26.336 62.8821 26.448C62.3541 26.56 61.7941 26.752 61.2021 27.024C60.8981 27.168 60.6261 27.208 60.3861 27.144C60.1621 27.08 59.9861 26.952 59.8581 26.76C59.7301 26.552 59.6661 26.328 59.6661 26.088C59.6661 25.848 59.7301 25.616 59.8581 25.392C59.9861 25.152 60.2021 24.976 60.5061 24.864C61.2421 24.56 61.9461 24.344 62.6181 24.216C63.3061 24.088 63.9301 24.024 64.4901 24.024C65.6421 24.024 66.5861 24.2 67.3221 24.552C68.0741 24.904 68.6341 25.44 69.0021 26.16C69.3701 26.864 69.5541 27.776 69.5541 28.896V34.656C69.5541 35.152 69.4341 35.536 69.1941 35.808C68.9541 36.064 68.6101 36.192 68.1621 36.192C67.7141 36.192 67.3621 36.064 67.1061 35.808C66.8661 35.536 66.7461 35.152 66.7461 34.656V33.504H66.9381C66.8261 34.064 66.6021 34.552 66.2661 34.968C65.9461 35.368 65.5381 35.68 65.0421 35.904C64.5461 36.128 63.9781 36.24 63.3381 36.24ZM78.7191 36.24C78.0151 36.24 77.3111 36.184 76.6071 36.072C75.9031 35.976 75.2391 35.824 74.6151 35.616C73.9911 35.392 73.4311 35.12 72.9351 34.8C72.6471 34.608 72.4471 34.376 72.3351 34.104C72.2231 33.832 72.1831 33.568 72.2151 33.312C72.2631 33.04 72.3671 32.808 72.5271 32.616C72.7031 32.408 72.9191 32.28 73.1751 32.232C73.4311 32.184 73.7111 32.256 74.0151 32.448C74.7191 32.864 75.4631 33.168 76.2471 33.36C77.0311 33.552 77.8551 33.648 78.7191 33.648C79.9831 33.648 80.9031 33.44 81.4791 33.024C82.0551 32.592 82.3431 32.04 82.3431 31.368C82.3431 30.808 82.1351 30.368 81.7191 30.048C81.3191 29.728 80.6231 29.464 79.6311 29.256L76.9911 28.704C75.4711 28.384 74.3351 27.848 73.5831 27.096C72.8471 26.328 72.4791 25.32 72.4791 24.072C72.4791 23.288 72.6391 22.576 72.9591 21.936C73.2791 21.296 73.7271 20.744 74.3031 20.28C74.8951 19.816 75.5911 19.464 76.3911 19.224C77.2071 18.968 78.1031 18.84 79.0791 18.84C80.0391 18.84 80.9511 18.96 81.8151 19.2C82.6791 19.44 83.4551 19.792 84.1431 20.256C84.3991 20.432 84.5671 20.648 84.6471 20.904C84.7431 21.16 84.7671 21.416 84.7191 21.672C84.6711 21.912 84.5591 22.12 84.3831 22.296C84.2071 22.472 83.9831 22.576 83.7111 22.608C83.4551 22.64 83.1591 22.56 82.8231 22.368C82.2311 22.032 81.6311 21.792 81.0231 21.648C80.4151 21.504 79.7591 21.432 79.0551 21.432C78.3191 21.432 77.6871 21.536 77.1591 21.744C76.6311 21.952 76.2231 22.248 75.9351 22.632C75.6631 23 75.5271 23.44 75.5271 23.952C75.5271 24.528 75.7191 24.992 76.1031 25.344C76.4871 25.68 77.1431 25.944 78.0711 26.136L80.6871 26.688C82.2711 27.024 83.4471 27.552 84.2151 28.272C84.9991 28.992 85.3911 29.952 85.3911 31.152C85.3911 31.92 85.2311 32.616 84.9111 33.24C84.6071 33.864 84.1591 34.4 83.5671 34.848C82.9911 35.296 82.2951 35.64 81.4791 35.88C80.6631 36.12 79.7431 36.24 78.7191 36.24ZM93.1637 36.24C91.9317 36.24 90.8597 35.992 89.9477 35.496C89.0357 34.984 88.3317 34.264 87.8357 33.336C87.3397 32.408 87.0917 31.32 87.0917 30.072C87.0917 29.128 87.2277 28.288 87.4997 27.552C87.7877 26.8 88.1957 26.168 88.7237 25.656C89.2517 25.128 89.8917 24.728 90.6437 24.456C91.3957 24.168 92.2357 24.024 93.1637 24.024C93.6917 24.024 94.2597 24.096 94.8677 24.24C95.4917 24.384 96.0757 24.624 96.6197 24.96C96.8757 25.12 97.0437 25.312 97.1237 25.536C97.2037 25.76 97.2197 25.992 97.1717 26.232C97.1237 26.456 97.0197 26.656 96.8597 26.832C96.7157 26.992 96.5317 27.096 96.3077 27.144C96.0837 27.176 95.8357 27.12 95.5637 26.976C95.2117 26.768 94.8517 26.616 94.4837 26.52C94.1157 26.408 93.7637 26.352 93.4277 26.352C92.8997 26.352 92.4357 26.44 92.0357 26.616C91.6357 26.776 91.2917 27.016 91.0037 27.336C90.7317 27.64 90.5237 28.024 90.3797 28.488C90.2357 28.952 90.1637 29.488 90.1637 30.096C90.1637 31.28 90.4437 32.216 91.0037 32.904C91.5797 33.576 92.3877 33.912 93.4277 33.912C93.7637 33.912 94.1077 33.864 94.4597 33.768C94.8277 33.672 95.1957 33.52 95.5637 33.312C95.8357 33.168 96.0757 33.12 96.2837 33.168C96.5077 33.216 96.6917 33.328 96.8357 33.504C96.9797 33.664 97.0677 33.864 97.0997 34.104C97.1317 34.328 97.0997 34.552 97.0037 34.776C96.9237 35 96.7637 35.184 96.5237 35.328C95.9957 35.648 95.4357 35.88 94.8437 36.024C94.2517 36.168 93.6917 36.24 93.1637 36.24ZM100.596 36.192C100.1 36.192 99.716 36.064 99.444 35.808C99.188 35.536 99.06 35.152 99.06 34.656V25.584C99.06 25.088 99.188 24.712 99.444 24.456C99.7 24.2 100.06 24.072 100.524 24.072C100.988 24.072 101.348 24.2 101.604 24.456C101.86 24.712 101.988 25.088 101.988 25.584V27.096H101.748C101.972 26.136 102.412 25.408 103.068 24.912C103.724 24.416 104.596 24.12 105.684 24.024C106.02 23.992 106.284 24.08 106.476 24.288C106.684 24.48 106.804 24.784 106.836 25.2C106.868 25.6 106.772 25.928 106.548 26.184C106.34 26.424 106.02 26.568 105.588 26.616L105.06 26.664C104.084 26.76 103.348 27.064 102.852 27.576C102.356 28.072 102.108 28.776 102.108 29.688V34.656C102.108 35.152 101.98 35.536 101.724 35.808C101.468 36.064 101.092 36.192 100.596 36.192ZM109.946 36.168C109.466 36.168 109.098 36.024 108.842 35.736C108.586 35.448 108.458 35.048 108.458 34.536V25.728C108.458 25.2 108.586 24.8 108.842 24.528C109.098 24.24 109.466 24.096 109.946 24.096C110.426 24.096 110.794 24.24 111.05 24.528C111.322 24.8 111.458 25.2 111.458 25.728V34.536C111.458 35.048 111.33 35.448 111.074 35.736C110.818 36.024 110.442 36.168 109.946 36.168ZM109.946 21.864C109.386 21.864 108.946 21.728 108.626 21.456C108.322 21.168 108.17 20.776 108.17 20.28C108.17 19.768 108.322 19.376 108.626 19.104C108.946 18.832 109.386 18.696 109.946 18.696C110.522 18.696 110.962 18.832 111.266 19.104C111.57 19.376 111.722 19.768 111.722 20.28C111.722 20.776 111.57 21.168 111.266 21.456C110.962 21.728 110.522 21.864 109.946 21.864ZM116.064 40.512C115.584 40.512 115.216 40.384 114.96 40.128C114.704 39.872 114.576 39.496 114.576 39V25.584C114.576 25.088 114.704 24.712 114.96 24.456C115.216 24.2 115.576 24.072 116.04 24.072C116.52 24.072 116.888 24.2 117.144 24.456C117.4 24.712 117.528 25.088 117.528 25.584V27.456L117.264 26.736C117.504 25.92 117.992 25.264 118.728 24.768C119.48 24.272 120.352 24.024 121.344 24.024C122.368 24.024 123.264 24.272 124.032 24.768C124.816 25.264 125.424 25.968 125.856 26.88C126.288 27.776 126.504 28.856 126.504 30.12C126.504 31.368 126.288 32.456 125.856 33.384C125.424 34.296 124.824 35 124.056 35.496C123.288 35.992 122.384 36.24 121.344 36.24C120.368 36.24 119.512 36 118.776 35.52C118.04 35.024 117.544 34.384 117.288 33.6H117.576V39C117.576 39.496 117.44 39.872 117.168 40.128C116.912 40.384 116.544 40.512 116.064 40.512ZM120.504 33.96C121.096 33.96 121.616 33.816 122.064 33.528C122.512 33.24 122.856 32.816 123.096 32.256C123.352 31.68 123.48 30.968 123.48 30.12C123.48 28.84 123.208 27.888 122.664 27.264C122.12 26.624 121.4 26.304 120.504 26.304C119.912 26.304 119.392 26.448 118.944 26.736C118.496 27.008 118.144 27.432 117.888 28.008C117.648 28.568 117.528 29.272 117.528 30.12C117.528 31.384 117.8 32.344 118.344 33C118.888 33.64 119.608 33.96 120.504 33.96ZM134.225 36.24C133.185 36.24 132.313 36.064 131.609 35.712C130.921 35.36 130.409 34.848 130.073 34.176C129.737 33.488 129.569 32.64 129.569 31.632V26.52H128.321C127.937 26.52 127.641 26.424 127.433 26.232C127.225 26.024 127.121 25.744 127.121 25.392C127.121 25.024 127.225 24.744 127.433 24.552C127.641 24.36 127.937 24.264 128.321 24.264H129.569V22.08C129.569 21.584 129.697 21.208 129.953 20.952C130.225 20.696 130.601 20.568 131.081 20.568C131.561 20.568 131.929 20.696 132.185 20.952C132.441 21.208 132.569 21.584 132.569 22.08V24.264H135.113C135.497 24.264 135.793 24.36 136.001 24.552C136.209 24.744 136.313 25.024 136.313 25.392C136.313 25.744 136.209 26.024 136.001 26.232C135.793 26.424 135.497 26.52 135.113 26.52H132.569V31.464C132.569 32.232 132.737 32.808 133.073 33.192C133.409 33.576 133.953 33.768 134.705 33.768C134.977 33.768 135.217 33.744 135.425 33.696C135.633 33.648 135.817 33.616 135.977 33.6C136.169 33.584 136.329 33.648 136.457 33.792C136.585 33.92 136.649 34.192 136.649 34.608C136.649 34.928 136.593 35.216 136.481 35.472C136.385 35.712 136.201 35.88 135.929 35.976C135.721 36.04 135.449 36.096 135.113 36.144C134.777 36.208 134.481 36.24 134.225 36.24Z" fill="#303030"/>
</svg>
