<svg width="164" height="56" viewBox="0 0 164 56" fill="none" xmlns="http://www.w3.org/2000/svg">
<rect width="164" height="56" rx="28" fill="#E9F45D"/>
<path d="M38.664 36.192C38.168 36.192 37.784 36.056 37.512 35.784C37.256 35.496 37.128 35.104 37.128 34.608V21.648H31.08V25.008C31.08 26.464 30.984 27.76 30.792 28.896C30.6 30.032 30.32 31.04 29.952 31.92C29.6 32.8 29.152 33.568 28.608 34.224C28.08 34.88 27.472 35.448 26.784 35.928C26.432 36.184 26.072 36.272 25.704 36.192C25.336 36.128 25.016 35.92 24.744 35.568C24.488 35.2 24.4 34.84 24.48 34.488C24.576 34.136 24.808 33.832 25.176 33.576C25.688 33.224 26.136 32.792 26.52 32.28C26.904 31.768 27.224 31.144 27.48 30.408C27.736 29.672 27.928 28.8 28.056 27.792C28.184 26.768 28.248 25.576 28.248 24.216V20.712C28.248 20.184 28.384 19.784 28.656 19.512C28.944 19.224 29.352 19.08 29.88 19.08H38.568C39.096 19.08 39.496 19.224 39.768 19.512C40.056 19.784 40.2 20.184 40.2 20.712V34.608C40.2 35.104 40.064 35.496 39.792 35.784C39.536 36.056 39.16 36.192 38.664 36.192ZM49.5589 36.24C48.2309 36.24 47.0869 35.992 46.1269 35.496C45.1669 35 44.4229 34.296 43.8949 33.384C43.3829 32.472 43.1269 31.392 43.1269 30.144C43.1269 28.928 43.3749 27.864 43.8709 26.952C44.3829 26.04 45.0789 25.328 45.9589 24.816C46.8549 24.288 47.8709 24.024 49.0069 24.024C49.8389 24.024 50.5829 24.16 51.2389 24.432C51.9109 24.704 52.4789 25.096 52.9429 25.608C53.4229 26.12 53.7829 26.744 54.0229 27.48C54.2789 28.2 54.4069 29.016 54.4069 29.928C54.4069 30.216 54.3029 30.44 54.0949 30.6C53.9029 30.744 53.6229 30.816 53.2549 30.816H45.5509V29.088H52.2949L51.9109 29.448C51.9109 28.712 51.7989 28.096 51.5749 27.6C51.3669 27.104 51.0549 26.728 50.6389 26.472C50.2389 26.2 49.7349 26.064 49.1269 26.064C48.4549 26.064 47.8789 26.224 47.3989 26.544C46.9349 26.848 46.5749 27.288 46.3189 27.864C46.0789 28.424 45.9589 29.096 45.9589 29.88V30.048C45.9589 31.36 46.2629 32.344 46.8709 33C47.4949 33.64 48.4069 33.96 49.6069 33.96C50.0229 33.96 50.4869 33.912 50.9989 33.816C51.5269 33.704 52.0229 33.52 52.4869 33.264C52.8229 33.072 53.1189 32.992 53.3749 33.024C53.6309 33.04 53.8309 33.128 53.9749 33.288C54.1349 33.448 54.2309 33.648 54.2629 33.888C54.2949 34.112 54.2469 34.344 54.1189 34.584C54.0069 34.824 53.8069 35.032 53.5189 35.208C52.9589 35.56 52.3109 35.824 51.5749 36C50.8549 36.16 50.1829 36.24 49.5589 36.24ZM58.5988 36.192C58.1188 36.192 57.7428 36.064 57.4708 35.808C57.2148 35.536 57.0868 35.152 57.0868 34.656V25.584C57.0868 25.072 57.2148 24.696 57.4708 24.456C57.7428 24.2 58.1188 24.072 58.5988 24.072C59.0788 24.072 59.4468 24.2 59.7028 24.456C59.9588 24.696 60.0868 25.072 60.0868 25.584V28.8H65.2708V25.584C65.2708 25.072 65.3988 24.696 65.6548 24.456C65.9108 24.2 66.2788 24.072 66.7588 24.072C67.2388 24.072 67.6068 24.2 67.8628 24.456C68.1348 24.696 68.2708 25.072 68.2708 25.584V34.656C68.2708 35.152 68.1348 35.536 67.8628 35.808C67.6068 36.064 67.2388 36.192 66.7588 36.192C66.2788 36.192 65.9108 36.064 65.6548 35.808C65.3988 35.536 65.2708 35.152 65.2708 34.656V31.152H60.0868V34.656C60.0868 35.152 59.9588 35.536 59.7028 35.808C59.4628 36.064 59.0948 36.192 58.5988 36.192ZM71.9044 39.312C71.5044 39.312 71.1844 39.192 70.9444 38.952C70.7204 38.728 70.6084 38.4 70.6084 37.968V35.04C70.6084 34.112 71.0724 33.648 72.0004 33.648H73.3444L71.5684 34.272C71.9844 33.712 72.3124 33.128 72.5524 32.52C72.7924 31.912 72.9684 31.216 73.0804 30.432C73.1924 29.632 73.2484 28.688 73.2484 27.6V25.944C73.2484 25.4 73.3924 24.984 73.6804 24.696C73.9684 24.408 74.3844 24.264 74.9284 24.264H80.7124C81.2564 24.264 81.6724 24.408 81.9604 24.696C82.2484 24.984 82.3924 25.4 82.3924 25.944V35.04L81.0004 33.648H82.9204C83.3684 33.648 83.7124 33.768 83.9524 34.008C84.1924 34.232 84.3124 34.576 84.3124 35.04V37.968C84.3124 38.864 83.8884 39.312 83.0404 39.312C82.6244 39.312 82.3044 39.192 82.0804 38.952C81.8724 38.728 81.7684 38.4 81.7684 37.968V36H73.1524V37.968C73.1524 38.864 72.7364 39.312 71.9044 39.312ZM74.6644 33.648H79.5844V26.568H75.8164V28.296C75.8164 29.304 75.7124 30.28 75.5044 31.224C75.3124 32.168 75.0324 32.976 74.6644 33.648ZM87.9163 36.192C87.6123 36.192 87.3563 36.136 87.1483 36.024C86.9403 35.912 86.7803 35.736 86.6683 35.496C86.5723 35.256 86.5243 34.952 86.5243 34.584V25.512C86.5243 25.048 86.6443 24.696 86.8843 24.456C87.1243 24.2 87.4603 24.072 87.8923 24.072C88.3243 24.072 88.6523 24.2 88.8763 24.456C89.1163 24.696 89.2363 25.048 89.2363 25.512V32.928H88.6123L94.5403 25.032C94.7163 24.808 94.9323 24.592 95.1883 24.384C95.4443 24.176 95.7963 24.072 96.2443 24.072C96.5483 24.072 96.7963 24.128 96.9883 24.24C97.1963 24.352 97.3483 24.528 97.4443 24.768C97.5563 24.992 97.6123 25.288 97.6123 25.656V34.752C97.6123 35.2 97.4923 35.552 97.2523 35.808C97.0283 36.064 96.7003 36.192 96.2683 36.192C95.8203 36.192 95.4763 36.064 95.2363 35.808C95.0123 35.552 94.9003 35.2 94.9003 34.752V27.312H95.5483L89.5963 35.232C89.4363 35.456 89.2283 35.672 88.9723 35.88C88.7323 36.088 88.3803 36.192 87.9163 36.192ZM102.521 36.192C102.041 36.192 101.665 36.064 101.393 35.808C101.137 35.536 101.009 35.152 101.009 34.656V25.584C101.009 25.072 101.137 24.696 101.393 24.456C101.665 24.2 102.041 24.072 102.521 24.072C103.001 24.072 103.369 24.2 103.625 24.456C103.881 24.696 104.009 25.072 104.009 25.584V28.8H109.193V25.584C109.193 25.072 109.321 24.696 109.577 24.456C109.833 24.2 110.201 24.072 110.681 24.072C111.161 24.072 111.529 24.2 111.785 24.456C112.057 24.696 112.193 25.072 112.193 25.584V34.656C112.193 35.152 112.057 35.536 111.785 35.808C111.529 36.064 111.161 36.192 110.681 36.192C110.201 36.192 109.833 36.064 109.577 35.808C109.321 35.536 109.193 35.152 109.193 34.656V31.152H104.009V34.656C104.009 35.152 103.881 35.536 103.625 35.808C103.385 36.064 103.017 36.192 102.521 36.192ZM117.122 36.192C116.642 36.192 116.266 36.056 115.994 35.784C115.738 35.512 115.61 35.128 115.61 34.632V25.944C115.61 25.4 115.754 24.984 116.042 24.696C116.33 24.408 116.746 24.264 117.29 24.264H123.41C123.842 24.264 124.162 24.36 124.37 24.552C124.578 24.744 124.682 25.04 124.682 25.44C124.682 25.824 124.578 26.12 124.37 26.328C124.162 26.52 123.842 26.616 123.41 26.616H118.61V34.632C118.61 35.672 118.114 36.192 117.122 36.192ZM127.971 36.192C127.667 36.192 127.411 36.136 127.203 36.024C126.995 35.912 126.835 35.736 126.723 35.496C126.627 35.256 126.579 34.952 126.579 34.584V25.512C126.579 25.048 126.699 24.696 126.939 24.456C127.179 24.2 127.515 24.072 127.947 24.072C128.379 24.072 128.707 24.2 128.931 24.456C129.171 24.696 129.291 25.048 129.291 25.512V32.928H128.667L134.595 25.032C134.771 24.808 134.987 24.592 135.243 24.384C135.499 24.176 135.851 24.072 136.299 24.072C136.603 24.072 136.851 24.128 137.043 24.24C137.251 24.352 137.403 24.528 137.499 24.768C137.611 24.992 137.667 25.288 137.667 25.656V34.752C137.667 35.2 137.547 35.552 137.307 35.808C137.083 36.064 136.755 36.192 136.323 36.192C135.875 36.192 135.531 36.064 135.291 35.808C135.067 35.552 134.955 35.2 134.955 34.752V27.312H135.603L129.651 35.232C129.491 35.456 129.283 35.672 129.027 35.88C128.787 36.088 128.435 36.192 127.971 36.192Z" fill="#303030"/>
</svg>
