<svg width="225" height="56" viewBox="0 0 225 56" fill="none" xmlns="http://www.w3.org/2000/svg">
<rect width="225" height="56" rx="28" fill="#FEFEFF"/>
<path d="M27.288 36.192C26.84 36.192 26.496 36.064 26.256 35.808C26.016 35.552 25.896 35.2 25.896 34.752V20.328C25.896 19.864 26.024 19.512 26.28 19.272C26.536 19.016 26.888 18.888 27.336 18.888C27.736 18.888 28.048 18.968 28.272 19.128C28.512 19.272 28.728 19.528 28.92 19.896L34.848 30.864H34.08L40.008 19.896C40.2 19.528 40.408 19.272 40.632 19.128C40.856 18.968 41.168 18.888 41.568 18.888C42.016 18.888 42.36 19.016 42.6 19.272C42.84 19.512 42.96 19.864 42.96 20.328V34.752C42.96 35.2 42.84 35.552 42.6 35.808C42.376 36.064 42.032 36.192 41.568 36.192C41.12 36.192 40.776 36.064 40.536 35.808C40.296 35.552 40.176 35.2 40.176 34.752V23.64H40.704L35.664 32.832C35.504 33.104 35.336 33.304 35.16 33.432C34.984 33.56 34.744 33.624 34.44 33.624C34.136 33.624 33.888 33.56 33.696 33.432C33.504 33.288 33.336 33.088 33.192 32.832L28.104 23.616H28.68V34.752C28.68 35.2 28.56 35.552 28.32 35.808C28.096 36.064 27.752 36.192 27.288 36.192ZM51.9159 36.24C50.6999 36.24 49.6439 35.992 48.7479 35.496C47.8519 35 47.1559 34.296 46.6599 33.384C46.1639 32.456 45.9159 31.368 45.9159 30.12C45.9159 29.176 46.0519 28.336 46.3239 27.6C46.6119 26.848 47.0199 26.208 47.5479 25.68C48.0759 25.136 48.7079 24.728 49.4439 24.456C50.1799 24.168 51.0039 24.024 51.9159 24.024C53.1319 24.024 54.1879 24.272 55.0839 24.768C55.9799 25.264 56.6759 25.968 57.1719 26.88C57.6679 27.792 57.9159 28.872 57.9159 30.12C57.9159 31.064 57.7719 31.912 57.4839 32.664C57.2119 33.416 56.8119 34.064 56.2839 34.608C55.7559 35.136 55.1239 35.544 54.3879 35.832C53.6519 36.104 52.8279 36.24 51.9159 36.24ZM51.9159 33.96C52.5079 33.96 53.0279 33.816 53.4759 33.528C53.9239 33.24 54.2679 32.816 54.5079 32.256C54.7639 31.68 54.8919 30.968 54.8919 30.12C54.8919 28.84 54.6199 27.888 54.0759 27.264C53.5319 26.624 52.8119 26.304 51.9159 26.304C51.3239 26.304 50.8039 26.448 50.3559 26.736C49.9079 27.008 49.5559 27.432 49.2999 28.008C49.0599 28.568 48.9399 29.272 48.9399 30.12C48.9399 31.384 49.2119 32.344 49.7559 33C50.2999 33.64 51.0199 33.96 51.9159 33.96ZM63.5087 40.512C63.1567 40.512 62.8687 40.416 62.6447 40.224C62.4207 40.048 62.2847 39.808 62.2367 39.504C62.2047 39.2 62.2607 38.88 62.4047 38.544L64.0367 34.92V36.168L59.6687 26.064C59.5247 25.712 59.4767 25.384 59.5247 25.08C59.5727 24.776 59.7167 24.536 59.9567 24.36C60.2127 24.168 60.5567 24.072 60.9887 24.072C61.3567 24.072 61.6527 24.16 61.8767 24.336C62.1007 24.496 62.3007 24.808 62.4767 25.272L65.7167 33.36H64.9967L68.3087 25.248C68.4847 24.8 68.6927 24.496 68.9327 24.336C69.1727 24.16 69.4927 24.072 69.8927 24.072C70.2447 24.072 70.5247 24.168 70.7327 24.36C70.9407 24.536 71.0687 24.776 71.1167 25.08C71.1647 25.368 71.1087 25.688 70.9487 26.04L65.1167 39.36C64.9087 39.808 64.6847 40.112 64.4447 40.272C64.2047 40.432 63.8927 40.512 63.5087 40.512ZM74.9576 36C74.4776 36 74.1096 35.872 73.8536 35.616C73.5976 35.36 73.4696 34.992 73.4696 34.512V25.584C73.4696 25.072 73.5896 24.696 73.8296 24.456C74.0856 24.2 74.4376 24.072 74.8856 24.072C75.3496 24.072 75.7016 24.2 75.9416 24.456C76.1816 24.696 76.3016 25.072 76.3016 25.584V33.648H80.3336V25.584C80.3336 25.072 80.4536 24.696 80.6936 24.456C80.9496 24.2 81.3016 24.072 81.7496 24.072C82.2136 24.072 82.5656 24.2 82.8056 24.456C83.0456 24.696 83.1656 25.072 83.1656 25.584V33.648H87.1976V25.584C87.1976 25.072 87.3176 24.696 87.5576 24.456C87.8136 24.2 88.1656 24.072 88.6136 24.072C89.0776 24.072 89.4296 24.2 89.6696 24.456C89.9096 24.696 90.0296 25.072 90.0296 25.584V34.512C90.0296 34.992 89.9016 35.36 89.6456 35.616C89.3896 35.872 89.0216 36 88.5416 36H74.9576ZM94.9504 36.192C94.4704 36.192 94.0944 36.064 93.8224 35.808C93.5664 35.536 93.4384 35.152 93.4384 34.656V25.584C93.4384 25.072 93.5664 24.696 93.8224 24.456C94.0944 24.2 94.4704 24.072 94.9504 24.072C95.4304 24.072 95.7984 24.2 96.0544 24.456C96.3104 24.696 96.4384 25.072 96.4384 25.584V28.8H101.622V25.584C101.622 25.072 101.75 24.696 102.006 24.456C102.262 24.2 102.63 24.072 103.11 24.072C103.59 24.072 103.958 24.2 104.214 24.456C104.486 24.696 104.622 25.072 104.622 25.584V34.656C104.622 35.152 104.486 35.536 104.214 35.808C103.958 36.064 103.59 36.192 103.11 36.192C102.63 36.192 102.262 36.064 102.006 35.808C101.75 35.536 101.622 35.152 101.622 34.656V31.152H96.4384V34.656C96.4384 35.152 96.3104 35.536 96.0544 35.808C95.8144 36.064 95.4464 36.192 94.9504 36.192ZM109 30.768C108.648 30.768 108.352 30.656 108.112 30.432C107.888 30.192 107.776 29.904 107.776 29.568C107.776 29.216 107.888 28.928 108.112 28.704C108.352 28.48 108.648 28.368 109 28.368H114.112C114.448 28.368 114.728 28.48 114.952 28.704C115.192 28.928 115.312 29.216 115.312 29.568C115.312 29.904 115.192 30.192 114.952 30.432C114.728 30.656 114.448 30.768 114.112 30.768H109ZM118.076 39.312C117.676 39.312 117.356 39.192 117.116 38.952C116.892 38.728 116.78 38.4 116.78 37.968V35.04C116.78 34.112 117.244 33.648 118.172 33.648H119.516L117.74 34.272C118.156 33.712 118.484 33.128 118.724 32.52C118.964 31.912 119.14 31.216 119.252 30.432C119.364 29.632 119.42 28.688 119.42 27.6V25.944C119.42 25.4 119.564 24.984 119.852 24.696C120.14 24.408 120.556 24.264 121.1 24.264H126.884C127.428 24.264 127.844 24.408 128.132 24.696C128.42 24.984 128.564 25.4 128.564 25.944V35.04L127.172 33.648H129.092C129.54 33.648 129.884 33.768 130.124 34.008C130.364 34.232 130.484 34.576 130.484 35.04V37.968C130.484 38.864 130.06 39.312 129.212 39.312C128.796 39.312 128.476 39.192 128.252 38.952C128.044 38.728 127.94 38.4 127.94 37.968V36H119.324V37.968C119.324 38.864 118.908 39.312 118.076 39.312ZM120.836 33.648H125.756V26.568H121.988V28.296C121.988 29.304 121.884 30.28 121.676 31.224C121.484 32.168 121.204 32.976 120.836 33.648ZM134.088 36.192C133.784 36.192 133.528 36.136 133.32 36.024C133.112 35.912 132.952 35.736 132.84 35.496C132.744 35.256 132.696 34.952 132.696 34.584V25.512C132.696 25.048 132.816 24.696 133.056 24.456C133.296 24.2 133.632 24.072 134.064 24.072C134.496 24.072 134.824 24.2 135.048 24.456C135.288 24.696 135.408 25.048 135.408 25.512V32.928H134.784L140.712 25.032C140.888 24.808 141.104 24.592 141.36 24.384C141.616 24.176 141.968 24.072 142.416 24.072C142.72 24.072 142.968 24.128 143.16 24.24C143.368 24.352 143.52 24.528 143.616 24.768C143.728 24.992 143.784 25.288 143.784 25.656V34.752C143.784 35.2 143.664 35.552 143.424 35.808C143.2 36.064 142.872 36.192 142.44 36.192C141.992 36.192 141.648 36.064 141.408 35.808C141.184 35.552 141.072 35.2 141.072 34.752V27.312H141.72L135.768 35.232C135.608 35.456 135.4 35.672 135.144 35.88C134.904 36.088 134.552 36.192 134.088 36.192ZM151.525 36.24C150.709 36.24 149.917 36.16 149.149 36C148.381 35.856 147.693 35.64 147.085 35.352C146.797 35.208 146.589 35.032 146.461 34.824C146.333 34.6 146.269 34.376 146.269 34.152C146.285 33.912 146.357 33.704 146.485 33.528C146.629 33.352 146.821 33.24 147.061 33.192C147.301 33.144 147.581 33.2 147.901 33.36C148.413 33.6 148.981 33.784 149.605 33.912C150.245 34.024 150.861 34.08 151.453 34.08C152.477 34.08 153.205 33.96 153.637 33.72C154.069 33.464 154.285 33.08 154.285 32.568C154.285 32.104 154.117 31.752 153.781 31.512C153.445 31.272 152.965 31.152 152.341 31.152L150.205 31.152C149.837 31.152 149.549 31.056 149.341 30.864C149.133 30.656 149.029 30.384 149.029 30.048C149.029 29.712 149.133 29.456 149.341 29.28C149.549 29.088 149.837 28.992 150.205 28.992L152.053 28.992C152.613 28.992 153.053 28.88 153.373 28.656C153.693 28.416 153.853 28.08 153.853 27.648C153.853 27.184 153.661 26.824 153.277 26.568C152.909 26.312 152.237 26.184 151.261 26.184C150.701 26.184 150.157 26.24 149.629 26.352C149.101 26.448 148.581 26.608 148.069 26.832C147.685 26.992 147.357 27.024 147.085 26.928C146.829 26.816 146.645 26.632 146.533 26.376C146.421 26.12 146.413 25.856 146.509 25.584C146.605 25.312 146.821 25.096 147.157 24.936C147.861 24.616 148.589 24.384 149.341 24.24C150.109 24.096 150.917 24.024 151.765 24.024C153.333 24.024 154.525 24.32 155.341 24.912C156.173 25.488 156.589 26.296 156.589 27.336C156.589 28.072 156.341 28.696 155.845 29.208C155.349 29.704 154.685 30.008 153.853 30.12V29.784C154.845 29.848 155.621 30.136 156.181 30.648C156.741 31.16 157.021 31.848 157.021 32.712C157.021 33.784 156.549 34.64 155.605 35.28C154.661 35.92 153.301 36.24 151.525 36.24ZM163.537 36.24C162.689 36.24 161.929 36.08 161.257 35.76C160.601 35.424 160.081 34.976 159.697 34.416C159.329 33.856 159.145 33.224 159.145 32.52C159.145 31.656 159.369 30.976 159.817 30.48C160.265 29.968 160.993 29.6 162.001 29.376C163.009 29.152 164.361 29.04 166.057 29.04H167.257V30.768H166.081C165.089 30.768 164.297 30.816 163.705 30.912C163.113 31.008 162.689 31.176 162.433 31.416C162.193 31.64 162.073 31.96 162.073 32.376C162.073 32.904 162.257 33.336 162.625 33.672C162.993 34.008 163.505 34.176 164.161 34.176C164.689 34.176 165.153 34.056 165.553 33.816C165.969 33.56 166.297 33.216 166.537 32.784C166.777 32.352 166.897 31.856 166.897 31.296V28.536C166.897 27.736 166.721 27.16 166.369 26.808C166.017 26.456 165.425 26.28 164.593 26.28C164.129 26.28 163.625 26.336 163.081 26.448C162.553 26.56 161.993 26.752 161.401 27.024C161.097 27.168 160.825 27.208 160.585 27.144C160.361 27.08 160.185 26.952 160.057 26.76C159.929 26.552 159.865 26.328 159.865 26.088C159.865 25.848 159.929 25.616 160.057 25.392C160.185 25.152 160.401 24.976 160.705 24.864C161.441 24.56 162.145 24.344 162.817 24.216C163.505 24.088 164.129 24.024 164.689 24.024C165.841 24.024 166.785 24.2 167.521 24.552C168.273 24.904 168.833 25.44 169.201 26.16C169.569 26.864 169.753 27.776 169.753 28.896V34.656C169.753 35.152 169.633 35.536 169.393 35.808C169.153 36.064 168.809 36.192 168.361 36.192C167.913 36.192 167.561 36.064 167.305 35.808C167.065 35.536 166.945 35.152 166.945 34.656V33.504H167.137C167.025 34.064 166.801 34.552 166.465 34.968C166.145 35.368 165.737 35.68 165.241 35.904C164.745 36.128 164.177 36.24 163.537 36.24ZM174.494 36.192C174.19 36.192 173.934 36.136 173.726 36.024C173.518 35.912 173.358 35.736 173.246 35.496C173.15 35.256 173.102 34.952 173.102 34.584V25.512C173.102 25.048 173.222 24.696 173.462 24.456C173.702 24.2 174.038 24.072 174.47 24.072C174.902 24.072 175.23 24.2 175.454 24.456C175.694 24.696 175.814 25.048 175.814 25.512V32.928H175.19L181.118 25.032C181.294 24.808 181.51 24.592 181.766 24.384C182.022 24.176 182.374 24.072 182.822 24.072C183.126 24.072 183.374 24.128 183.566 24.24C183.774 24.352 183.926 24.528 184.022 24.768C184.134 24.992 184.19 25.288 184.19 25.656V34.752C184.19 35.2 184.07 35.552 183.83 35.808C183.606 36.064 183.278 36.192 182.846 36.192C182.398 36.192 182.054 36.064 181.814 35.808C181.59 35.552 181.478 35.2 181.478 34.752V27.312H182.126L176.174 35.232C176.014 35.456 175.806 35.672 175.55 35.88C175.31 36.088 174.958 36.192 174.494 36.192ZM178.646 22.776C177.654 22.776 176.79 22.552 176.054 22.104C175.318 21.64 174.798 20.992 174.494 20.16C174.382 19.856 174.366 19.608 174.446 19.416C174.542 19.208 174.71 19.064 174.95 18.984C175.19 18.904 175.398 18.912 175.574 19.008C175.766 19.104 175.934 19.296 176.078 19.584C176.35 20.096 176.694 20.48 177.11 20.736C177.542 20.992 178.054 21.12 178.646 21.12C179.254 21.12 179.766 20.992 180.182 20.736C180.614 20.48 180.958 20.096 181.214 19.584C181.358 19.296 181.518 19.104 181.694 19.008C181.886 18.912 182.102 18.904 182.342 18.984C182.582 19.064 182.742 19.208 182.822 19.416C182.918 19.608 182.894 19.856 182.75 20.16C182.35 20.992 181.814 21.64 181.142 22.104C180.47 22.552 179.638 22.776 178.646 22.776ZM189.099 36.192C188.619 36.192 188.243 36.064 187.971 35.808C187.715 35.536 187.587 35.152 187.587 34.656V25.584C187.587 25.072 187.715 24.696 187.971 24.456C188.243 24.2 188.619 24.072 189.099 24.072C189.579 24.072 189.947 24.2 190.203 24.456C190.459 24.696 190.587 25.072 190.587 25.584V28.8H195.771V25.584C195.771 25.072 195.899 24.696 196.155 24.456C196.411 24.2 196.779 24.072 197.259 24.072C197.739 24.072 198.107 24.2 198.363 24.456C198.635 24.696 198.771 25.072 198.771 25.584V34.656C198.771 35.152 198.635 35.536 198.363 35.808C198.107 36.064 197.739 36.192 197.259 36.192C196.779 36.192 196.411 36.064 196.155 35.808C195.899 35.536 195.771 35.152 195.771 34.656V31.152H190.587V34.656C190.587 35.152 190.459 35.536 190.203 35.808C189.963 36.064 189.595 36.192 189.099 36.192Z" fill="#303030"/>
</svg>
