<svg width="216" height="56" viewBox="0 0 216 56" fill="none" xmlns="http://www.w3.org/2000/svg">
<rect width="216" height="56" rx="28" fill="#F46B5C"/>
<path d="M27.144 36.192C26.936 36.192 26.752 36.16 26.592 36.096C26.432 36.032 26.296 35.936 26.184 35.808C26.072 35.664 25.984 35.496 25.92 35.304C25.872 35.112 25.848 34.888 25.848 34.632V20.352C25.848 19.888 25.968 19.528 26.208 19.272C26.464 19.016 26.824 18.888 27.288 18.888C27.752 18.888 28.104 19.016 28.344 19.272C28.584 19.528 28.704 19.888 28.704 20.352V31.704H28.152L37.272 19.776C37.512 19.456 37.744 19.232 37.968 19.104C38.192 18.96 38.488 18.888 38.856 18.888C39.112 18.888 39.328 18.944 39.504 19.056C39.696 19.168 39.84 19.336 39.936 19.56C40.048 19.768 40.104 20.016 40.104 20.304V34.704C40.104 35.184 39.984 35.552 39.744 35.808C39.504 36.064 39.152 36.192 38.688 36.192C38.224 36.192 37.864 36.064 37.608 35.808C37.368 35.552 37.248 35.184 37.248 34.704V23.352H37.776L28.68 35.28C28.424 35.6 28.192 35.832 27.984 35.976C27.792 36.12 27.512 36.192 27.144 36.192ZM49.1051 36.24C47.8731 36.24 46.8011 35.992 45.8891 35.496C44.9771 34.984 44.2731 34.264 43.7771 33.336C43.2811 32.408 43.0331 31.32 43.0331 30.072C43.0331 29.128 43.1691 28.288 43.4411 27.552C43.7291 26.8 44.1371 26.168 44.6651 25.656C45.1931 25.128 45.8331 24.728 46.5851 24.456C47.3371 24.168 48.1771 24.024 49.1051 24.024C49.6331 24.024 50.2011 24.096 50.8091 24.24C51.4331 24.384 52.0171 24.624 52.5611 24.96C52.8171 25.12 52.9851 25.312 53.0651 25.536C53.1451 25.76 53.1611 25.992 53.1131 26.232C53.0651 26.456 52.9611 26.656 52.8011 26.832C52.6571 26.992 52.4731 27.096 52.2491 27.144C52.0251 27.176 51.7771 27.12 51.5051 26.976C51.1531 26.768 50.7931 26.616 50.4251 26.52C50.0571 26.408 49.7051 26.352 49.3691 26.352C48.8411 26.352 48.3771 26.44 47.9771 26.616C47.5771 26.776 47.2331 27.016 46.9451 27.336C46.6731 27.64 46.4651 28.024 46.3211 28.488C46.1771 28.952 46.1051 29.488 46.1051 30.096C46.1051 31.28 46.3851 32.216 46.9451 32.904C47.5211 33.576 48.3291 33.912 49.3691 33.912C49.7051 33.912 50.0491 33.864 50.4011 33.768C50.7691 33.672 51.1371 33.52 51.5051 33.312C51.7771 33.168 52.0171 33.12 52.2251 33.168C52.4491 33.216 52.6331 33.328 52.7771 33.504C52.9211 33.664 53.0091 33.864 53.0411 34.104C53.0731 34.328 53.0411 34.552 52.9451 34.776C52.8651 35 52.7051 35.184 52.4651 35.328C51.9371 35.648 51.3771 35.88 50.7851 36.024C50.1931 36.168 49.6331 36.24 49.1051 36.24ZM60.777 36.24C59.545 36.24 58.473 35.992 57.561 35.496C56.649 34.984 55.945 34.264 55.449 33.336C54.953 32.408 54.705 31.32 54.705 30.072C54.705 29.128 54.841 28.288 55.113 27.552C55.401 26.8 55.809 26.168 56.337 25.656C56.865 25.128 57.505 24.728 58.257 24.456C59.009 24.168 59.849 24.024 60.777 24.024C61.305 24.024 61.873 24.096 62.481 24.24C63.105 24.384 63.689 24.624 64.233 24.96C64.489 25.12 64.657 25.312 64.737 25.536C64.817 25.76 64.833 25.992 64.785 26.232C64.737 26.456 64.633 26.656 64.473 26.832C64.329 26.992 64.145 27.096 63.921 27.144C63.697 27.176 63.449 27.12 63.177 26.976C62.825 26.768 62.465 26.616 62.097 26.52C61.729 26.408 61.377 26.352 61.041 26.352C60.513 26.352 60.049 26.44 59.649 26.616C59.249 26.776 58.905 27.016 58.617 27.336C58.345 27.64 58.137 28.024 57.993 28.488C57.849 28.952 57.777 29.488 57.777 30.096C57.777 31.28 58.057 32.216 58.617 32.904C59.193 33.576 60.001 33.912 61.041 33.912C61.377 33.912 61.721 33.864 62.073 33.768C62.441 33.672 62.809 33.52 63.177 33.312C63.449 33.168 63.689 33.12 63.897 33.168C64.121 33.216 64.305 33.328 64.449 33.504C64.593 33.664 64.681 33.864 64.713 34.104C64.745 34.328 64.713 34.552 64.617 34.776C64.537 35 64.377 35.184 64.137 35.328C63.609 35.648 63.049 35.88 62.457 36.024C61.865 36.168 61.305 36.24 60.777 36.24ZM76.4089 36.192C75.9289 36.192 75.5609 36.064 75.3049 35.808C75.0489 35.536 74.9209 35.152 74.9209 34.656V26.616H71.2249V27.984C71.2249 29.088 71.1529 30.08 71.0089 30.96C70.8809 31.84 70.6729 32.608 70.3849 33.264C70.1129 33.92 69.7529 34.472 69.3049 34.92C68.8569 35.368 68.3209 35.728 67.6969 36C67.3609 36.144 67.0489 36.184 66.7609 36.12C66.4889 36.056 66.2569 35.936 66.0649 35.76C65.8889 35.568 65.7769 35.344 65.7289 35.088C65.6809 34.816 65.7129 34.552 65.8249 34.296C65.9369 34.04 66.1529 33.824 66.4729 33.648C66.8729 33.424 67.2009 33.144 67.4569 32.808C67.7129 32.472 67.9129 32.072 68.0569 31.608C68.2009 31.128 68.3049 30.584 68.3689 29.976C68.4329 29.368 68.4649 28.672 68.4649 27.888V25.944C68.4649 25.4 68.6089 24.984 68.8969 24.696C69.1849 24.408 69.6009 24.264 70.1449 24.264H76.2409C76.7849 24.264 77.2009 24.408 77.4889 24.696C77.7769 24.984 77.9209 25.4 77.9209 25.944V34.656C77.9209 35.152 77.7849 35.536 77.5129 35.808C77.2569 36.064 76.8889 36.192 76.4089 36.192ZM87.1292 36.24C85.8012 36.24 84.6572 35.992 83.6972 35.496C82.7372 35 81.9932 34.296 81.4652 33.384C80.9532 32.472 80.6972 31.392 80.6972 30.144C80.6972 28.928 80.9452 27.864 81.4412 26.952C81.9532 26.04 82.6492 25.328 83.5292 24.816C84.4252 24.288 85.4412 24.024 86.5772 24.024C87.4092 24.024 88.1532 24.16 88.8092 24.432C89.4812 24.704 90.0492 25.096 90.5132 25.608C90.9932 26.12 91.3532 26.744 91.5932 27.48C91.8492 28.2 91.9772 29.016 91.9772 29.928C91.9772 30.216 91.8732 30.44 91.6652 30.6C91.4732 30.744 91.1932 30.816 90.8252 30.816H83.1212V29.088H89.8652L89.4812 29.448C89.4812 28.712 89.3692 28.096 89.1452 27.6C88.9372 27.104 88.6252 26.728 88.2092 26.472C87.8092 26.2 87.3052 26.064 86.6972 26.064C86.0252 26.064 85.4492 26.224 84.9692 26.544C84.5052 26.848 84.1452 27.288 83.8892 27.864C83.6492 28.424 83.5292 29.096 83.5292 29.88V30.048C83.5292 31.36 83.8332 32.344 84.4412 33C85.0652 33.64 85.9772 33.96 87.1772 33.96C87.5932 33.96 88.0572 33.912 88.5692 33.816C89.0972 33.704 89.5932 33.52 90.0572 33.264C90.3932 33.072 90.6892 32.992 90.9452 33.024C91.2012 33.04 91.4012 33.128 91.5452 33.288C91.7052 33.448 91.8012 33.648 91.8332 33.888C91.8652 34.112 91.8172 34.344 91.6892 34.584C91.5772 34.824 91.3772 35.032 91.0892 35.208C90.5292 35.56 89.8812 35.824 89.1452 36C88.4252 36.16 87.7532 36.24 87.1292 36.24ZM94.8731 39.312C94.4731 39.312 94.1531 39.192 93.9131 38.952C93.6891 38.728 93.5771 38.4 93.5771 37.968V35.04C93.5771 34.112 94.0411 33.648 94.9691 33.648H96.3131L94.5371 34.272C94.9531 33.712 95.2811 33.128 95.5211 32.52C95.7611 31.912 95.9371 31.216 96.0491 30.432C96.1611 29.632 96.2171 28.688 96.2171 27.6V25.944C96.2171 25.4 96.3611 24.984 96.6491 24.696C96.9371 24.408 97.3531 24.264 97.8971 24.264H103.681C104.225 24.264 104.641 24.408 104.929 24.696C105.217 24.984 105.361 25.4 105.361 25.944V35.04L103.969 33.648H105.889C106.337 33.648 106.681 33.768 106.921 34.008C107.161 34.232 107.281 34.576 107.281 35.04V37.968C107.281 38.864 106.857 39.312 106.009 39.312C105.593 39.312 105.273 39.192 105.049 38.952C104.841 38.728 104.737 38.4 104.737 37.968V36H96.1211V37.968C96.1211 38.864 95.7051 39.312 94.8731 39.312ZM97.6331 33.648H102.553V26.568H98.7851V28.296C98.7851 29.304 98.6811 30.28 98.4731 31.224C98.2811 32.168 98.0011 32.976 97.6331 33.648ZM114.869 36.24C113.653 36.24 112.597 35.992 111.701 35.496C110.805 35 110.109 34.296 109.613 33.384C109.117 32.456 108.869 31.368 108.869 30.12C108.869 29.176 109.005 28.336 109.277 27.6C109.565 26.848 109.973 26.208 110.501 25.68C111.029 25.136 111.661 24.728 112.397 24.456C113.133 24.168 113.957 24.024 114.869 24.024C116.085 24.024 117.141 24.272 118.037 24.768C118.933 25.264 119.629 25.968 120.125 26.88C120.621 27.792 120.869 28.872 120.869 30.12C120.869 31.064 120.725 31.912 120.437 32.664C120.165 33.416 119.765 34.064 119.237 34.608C118.709 35.136 118.077 35.544 117.341 35.832C116.605 36.104 115.781 36.24 114.869 36.24ZM114.869 33.96C115.461 33.96 115.981 33.816 116.429 33.528C116.877 33.24 117.221 32.816 117.461 32.256C117.717 31.68 117.845 30.968 117.845 30.12C117.845 28.84 117.573 27.888 117.029 27.264C116.485 26.624 115.765 26.304 114.869 26.304C114.277 26.304 113.757 26.448 113.309 26.736C112.861 27.008 112.509 27.432 112.253 28.008C112.013 28.568 111.893 29.272 111.893 30.12C111.893 31.384 112.165 32.344 112.709 33C113.253 33.64 113.973 33.96 114.869 33.96ZM125.137 36C124.657 36 124.289 35.872 124.033 35.616C123.777 35.36 123.649 34.992 123.649 34.512V25.752C123.649 25.272 123.777 24.904 124.033 24.648C124.289 24.392 124.657 24.264 125.137 24.264H129.985C130.993 24.264 131.809 24.384 132.433 24.624C133.073 24.864 133.537 25.216 133.825 25.68C134.113 26.128 134.257 26.68 134.257 27.336C134.257 28.072 134.001 28.696 133.489 29.208C132.993 29.704 132.329 30.008 131.497 30.12V29.784C132.537 29.848 133.321 30.144 133.849 30.672C134.393 31.2 134.665 31.88 134.665 32.712C134.665 33.72 134.281 34.52 133.513 35.112C132.745 35.704 131.633 36 130.177 36H125.137ZM126.433 34.152H129.913C130.569 34.152 131.065 34.016 131.401 33.744C131.753 33.472 131.929 33.072 131.929 32.544C131.929 32.016 131.753 31.616 131.401 31.344C131.065 31.072 130.569 30.936 129.913 30.936H126.433V34.152ZM126.433 29.088H129.697C130.273 29.088 130.721 28.96 131.041 28.704C131.361 28.432 131.521 28.056 131.521 27.576C131.521 27.096 131.361 26.736 131.041 26.496C130.721 26.24 130.273 26.112 129.697 26.112H126.433V29.088ZM141.178 36.24C140.33 36.24 139.57 36.08 138.898 35.76C138.242 35.424 137.722 34.976 137.338 34.416C136.97 33.856 136.786 33.224 136.786 32.52C136.786 31.656 137.01 30.976 137.458 30.48C137.906 29.968 138.634 29.6 139.642 29.376C140.65 29.152 142.002 29.04 143.698 29.04H144.898V30.768H143.722C142.73 30.768 141.938 30.816 141.346 30.912C140.754 31.008 140.33 31.176 140.074 31.416C139.834 31.64 139.714 31.96 139.714 32.376C139.714 32.904 139.898 33.336 140.266 33.672C140.634 34.008 141.146 34.176 141.802 34.176C142.33 34.176 142.794 34.056 143.194 33.816C143.61 33.56 143.938 33.216 144.178 32.784C144.418 32.352 144.538 31.856 144.538 31.296V28.536C144.538 27.736 144.362 27.16 144.01 26.808C143.658 26.456 143.066 26.28 142.234 26.28C141.77 26.28 141.266 26.336 140.722 26.448C140.194 26.56 139.634 26.752 139.042 27.024C138.738 27.168 138.466 27.208 138.226 27.144C138.002 27.08 137.826 26.952 137.698 26.76C137.57 26.552 137.506 26.328 137.506 26.088C137.506 25.848 137.57 25.616 137.698 25.392C137.826 25.152 138.042 24.976 138.346 24.864C139.082 24.56 139.786 24.344 140.458 24.216C141.146 24.088 141.77 24.024 142.33 24.024C143.482 24.024 144.426 24.2 145.162 24.552C145.914 24.904 146.474 25.44 146.842 26.16C147.21 26.864 147.394 27.776 147.394 28.896V34.656C147.394 35.152 147.274 35.536 147.034 35.808C146.794 36.064 146.45 36.192 146.002 36.192C145.554 36.192 145.202 36.064 144.946 35.808C144.706 35.536 144.586 35.152 144.586 34.656V33.504H144.778C144.666 34.064 144.442 34.552 144.106 34.968C143.786 35.368 143.378 35.68 142.882 35.904C142.386 36.128 141.818 36.24 141.178 36.24ZM152.255 36.192C151.775 36.192 151.399 36.064 151.127 35.808C150.871 35.536 150.743 35.152 150.743 34.656V25.584C150.743 25.072 150.871 24.696 151.127 24.456C151.399 24.2 151.775 24.072 152.255 24.072C152.735 24.072 153.103 24.2 153.359 24.456C153.615 24.696 153.743 25.072 153.743 25.584V28.8H158.927V25.584C158.927 25.072 159.055 24.696 159.311 24.456C159.567 24.2 159.935 24.072 160.415 24.072C160.895 24.072 161.263 24.2 161.519 24.456C161.791 24.696 161.927 25.072 161.927 25.584V34.656C161.927 35.152 161.791 35.536 161.519 35.808C161.263 36.064 160.895 36.192 160.415 36.192C159.935 36.192 159.567 36.064 159.311 35.808C159.055 35.536 158.927 35.152 158.927 34.656V31.152H153.743V34.656C153.743 35.152 153.615 35.536 153.359 35.808C153.119 36.064 152.751 36.192 152.255 36.192ZM166.737 36.192C166.433 36.192 166.177 36.136 165.969 36.024C165.761 35.912 165.601 35.736 165.489 35.496C165.393 35.256 165.345 34.952 165.345 34.584V25.512C165.345 25.048 165.465 24.696 165.705 24.456C165.945 24.2 166.281 24.072 166.713 24.072C167.145 24.072 167.473 24.2 167.697 24.456C167.937 24.696 168.057 25.048 168.057 25.512V32.928H167.433L173.361 25.032C173.537 24.808 173.753 24.592 174.009 24.384C174.265 24.176 174.617 24.072 175.065 24.072C175.369 24.072 175.617 24.128 175.809 24.24C176.017 24.352 176.169 24.528 176.265 24.768C176.377 24.992 176.433 25.288 176.433 25.656V34.752C176.433 35.2 176.313 35.552 176.073 35.808C175.849 36.064 175.521 36.192 175.089 36.192C174.641 36.192 174.297 36.064 174.057 35.808C173.833 35.552 173.721 35.2 173.721 34.752V27.312H174.369L168.417 35.232C168.257 35.456 168.049 35.672 167.793 35.88C167.553 36.088 167.201 36.192 166.737 36.192ZM188.493 36.192C188.045 36.192 187.701 36.072 187.461 35.832C187.221 35.576 187.101 35.224 187.101 34.776V31.944H185.853C185.389 31.944 184.973 32.072 184.605 32.328C184.253 32.584 183.965 32.904 183.741 33.288L182.565 35.352C182.357 35.72 182.101 35.96 181.797 36.072C181.509 36.2 181.213 36.224 180.909 36.144C180.621 36.064 180.373 35.92 180.165 35.712C179.957 35.488 179.821 35.224 179.757 34.92C179.709 34.616 179.789 34.296 179.997 33.96L180.741 32.712C180.981 32.296 181.325 31.936 181.773 31.632C182.221 31.328 182.685 31.176 183.165 31.176H183.645V31.44C182.269 31.44 181.213 31.136 180.477 30.528C179.741 29.92 179.373 29.048 179.373 27.912C179.373 27.16 179.541 26.512 179.877 25.968C180.229 25.424 180.741 25.008 181.413 24.72C182.085 24.416 182.917 24.264 183.909 24.264H188.373C188.853 24.264 189.221 24.392 189.477 24.648C189.749 24.904 189.885 25.272 189.885 25.752V34.776C189.885 35.224 189.757 35.576 189.501 35.832C189.245 36.072 188.909 36.192 188.493 36.192ZM184.533 29.976H187.101V26.232H184.533C183.749 26.232 183.165 26.4 182.781 26.736C182.397 27.056 182.205 27.504 182.205 28.08C182.205 28.672 182.397 29.136 182.781 29.472C183.165 29.808 183.749 29.976 184.533 29.976Z" fill="#303030"/>
</svg>
