<svg width="205" height="56" viewBox="0 0 205 56" fill="none" xmlns="http://www.w3.org/2000/svg">
<rect width="205" height="56" rx="28" fill="#E9F45D"/>
<path d="M32.88 36.24C31.712 36.24 30.68 36.088 29.784 35.784C28.904 35.48 28.16 35.032 27.552 34.44C26.944 33.832 26.488 33.08 26.184 32.184C25.88 31.288 25.728 30.248 25.728 29.064V20.448C25.728 19.92 25.856 19.528 26.112 19.272C26.384 19.016 26.768 18.888 27.264 18.888C27.76 18.888 28.136 19.016 28.392 19.272C28.664 19.528 28.8 19.92 28.8 20.448V29.04C28.8 30.56 29.144 31.704 29.832 32.472C30.536 33.224 31.552 33.6 32.88 33.6C34.208 33.6 35.216 33.224 35.904 32.472C36.592 31.704 36.936 30.56 36.936 29.04V20.448C36.936 19.92 37.064 19.528 37.32 19.272C37.592 19.016 37.976 18.888 38.472 18.888C38.952 18.888 39.32 19.016 39.576 19.272C39.848 19.528 39.984 19.92 39.984 20.448V29.064C39.984 30.632 39.712 31.952 39.168 33.024C38.64 34.096 37.848 34.904 36.792 35.448C35.736 35.976 34.432 36.24 32.88 36.24ZM43.9553 36.192C43.5553 36.192 43.2273 36.088 42.9713 35.88C42.7153 35.656 42.5633 35.384 42.5153 35.064C42.4833 34.728 42.5953 34.392 42.8513 34.056L48.3473 26.736V28.056L43.1152 21.048C42.8593 20.696 42.7473 20.36 42.7793 20.04C42.8113 19.704 42.9553 19.432 43.2113 19.224C43.4673 19 43.7873 18.888 44.1713 18.888C44.4913 18.888 44.7713 18.968 45.0113 19.128C45.2673 19.272 45.5233 19.52 45.7793 19.872L50.0993 25.824H49.1153L53.4113 19.872C53.6673 19.52 53.9153 19.272 54.1553 19.128C54.4113 18.968 54.7073 18.888 55.0433 18.888C55.4433 18.888 55.7713 18.992 56.0273 19.2C56.2833 19.408 56.4273 19.68 56.4593 20.016C56.4913 20.336 56.3713 20.68 56.0993 21.048L50.8673 28.056V26.736L56.3393 34.056C56.5953 34.392 56.7073 34.728 56.6753 35.064C56.6433 35.384 56.4993 35.656 56.2433 35.88C55.9873 36.088 55.6513 36.192 55.2353 36.192C54.9313 36.192 54.6513 36.112 54.3953 35.952C54.1553 35.792 53.8993 35.536 53.6273 35.184L49.0673 28.944H50.1233L45.5873 35.184C45.3313 35.536 45.0753 35.792 44.8193 35.952C44.5633 36.112 44.2753 36.192 43.9553 36.192ZM60.237 36.696C60.141 37 59.989 37.216 59.781 37.344C59.573 37.488 59.341 37.56 59.085 37.56C58.845 37.56 58.621 37.496 58.413 37.368C58.205 37.24 58.061 37.056 57.981 36.816C57.885 36.592 57.885 36.32 57.981 36L63.525 18.792C63.621 18.488 63.773 18.264 63.981 18.12C64.205 17.976 64.437 17.912 64.677 17.928C64.917 17.928 65.141 17.992 65.349 18.12C65.557 18.248 65.701 18.424 65.781 18.648C65.877 18.872 65.877 19.144 65.781 19.464L60.237 36.696ZM74.5284 36.24C73.3604 36.24 72.3284 36.088 71.4324 35.784C70.5524 35.48 69.8084 35.032 69.2004 34.44C68.5924 33.832 68.1364 33.08 67.8324 32.184C67.5284 31.288 67.3764 30.248 67.3764 29.064V20.448C67.3764 19.92 67.5044 19.528 67.7604 19.272C68.0324 19.016 68.4164 18.888 68.9124 18.888C69.4084 18.888 69.7844 19.016 70.0404 19.272C70.3124 19.528 70.4484 19.92 70.4484 20.448V29.04C70.4484 30.56 70.7924 31.704 71.4804 32.472C72.1844 33.224 73.2004 33.6 74.5284 33.6C75.8564 33.6 76.8644 33.224 77.5524 32.472C78.2404 31.704 78.5844 30.56 78.5844 29.04V20.448C78.5844 19.92 78.7124 19.528 78.9684 19.272C79.2404 19.016 79.6244 18.888 80.1204 18.888C80.6004 18.888 80.9684 19.016 81.2244 19.272C81.4964 19.528 81.6324 19.92 81.6324 20.448V29.064C81.6324 30.632 81.3604 31.952 80.8164 33.024C80.2884 34.096 79.4964 34.904 78.4404 35.448C77.3844 35.976 76.0804 36.24 74.5284 36.24ZM86.7512 36.192C86.2552 36.192 85.8712 36.056 85.5992 35.784C85.3432 35.496 85.2152 35.104 85.2152 34.608V20.472C85.2152 19.96 85.3432 19.568 85.5992 19.296C85.8712 19.024 86.2552 18.888 86.7512 18.888C87.2472 18.888 87.6232 19.024 87.8792 19.296C88.1512 19.568 88.2872 19.96 88.2872 20.472V34.608C88.2872 35.104 88.1592 35.496 87.9032 35.784C87.6472 36.056 87.2632 36.192 86.7512 36.192ZM98.5763 39.312C98.1763 39.312 97.8563 39.192 97.6163 38.952C97.3923 38.728 97.2803 38.4 97.2803 37.968V35.04C97.2803 34.112 97.7443 33.648 98.6723 33.648H100.016L98.2402 34.272C98.6563 33.712 98.9843 33.128 99.2243 32.52C99.4643 31.912 99.6403 31.216 99.7523 30.432C99.8643 29.632 99.9203 28.688 99.9203 27.6V25.944C99.9203 25.4 100.064 24.984 100.352 24.696C100.64 24.408 101.056 24.264 101.6 24.264H107.384C107.928 24.264 108.344 24.408 108.632 24.696C108.92 24.984 109.064 25.4 109.064 25.944V35.04L107.672 33.648H109.592C110.04 33.648 110.384 33.768 110.624 34.008C110.864 34.232 110.984 34.576 110.984 35.04V37.968C110.984 38.864 110.56 39.312 109.712 39.312C109.296 39.312 108.976 39.192 108.752 38.952C108.544 38.728 108.44 38.4 108.44 37.968V36H99.8242V37.968C99.8242 38.864 99.4083 39.312 98.5763 39.312ZM101.336 33.648H106.256V26.568H102.488V28.296C102.488 29.304 102.384 30.28 102.176 31.224C101.984 32.168 101.704 32.976 101.336 33.648ZM114.588 36.192C114.284 36.192 114.028 36.136 113.82 36.024C113.612 35.912 113.452 35.736 113.34 35.496C113.244 35.256 113.196 34.952 113.196 34.584V25.512C113.196 25.048 113.316 24.696 113.556 24.456C113.796 24.2 114.132 24.072 114.564 24.072C114.996 24.072 115.324 24.2 115.548 24.456C115.788 24.696 115.908 25.048 115.908 25.512V32.928H115.284L121.212 25.032C121.388 24.808 121.604 24.592 121.86 24.384C122.116 24.176 122.468 24.072 122.916 24.072C123.22 24.072 123.468 24.128 123.66 24.24C123.868 24.352 124.02 24.528 124.116 24.768C124.228 24.992 124.284 25.288 124.284 25.656V34.752C124.284 35.2 124.164 35.552 123.924 35.808C123.7 36.064 123.372 36.192 122.94 36.192C122.492 36.192 122.148 36.064 121.908 35.808C121.684 35.552 121.572 35.2 121.572 34.752V27.312H122.22L116.268 35.232C116.108 35.456 115.9 35.672 115.644 35.88C115.404 36.088 115.052 36.192 114.588 36.192ZM132.025 36.24C131.209 36.24 130.417 36.16 129.649 36C128.881 35.856 128.193 35.64 127.585 35.352C127.297 35.208 127.089 35.032 126.961 34.824C126.833 34.6 126.769 34.376 126.769 34.152C126.785 33.912 126.857 33.704 126.985 33.528C127.129 33.352 127.321 33.24 127.561 33.192C127.801 33.144 128.081 33.2 128.401 33.36C128.913 33.6 129.481 33.784 130.105 33.912C130.745 34.024 131.361 34.08 131.953 34.08C132.977 34.08 133.705 33.96 134.137 33.72C134.569 33.464 134.785 33.08 134.785 32.568C134.785 32.104 134.617 31.752 134.281 31.512C133.945 31.272 133.465 31.152 132.841 31.152H130.705C130.337 31.152 130.049 31.056 129.841 30.864C129.633 30.656 129.529 30.384 129.529 30.048C129.529 29.712 129.633 29.456 129.841 29.28C130.049 29.088 130.337 28.992 130.705 28.992H132.553C133.113 28.992 133.553 28.88 133.873 28.656C134.193 28.416 134.353 28.08 134.353 27.648C134.353 27.184 134.161 26.824 133.777 26.568C133.409 26.312 132.737 26.184 131.761 26.184C131.201 26.184 130.657 26.24 130.129 26.352C129.601 26.448 129.081 26.608 128.569 26.832C128.185 26.992 127.857 27.024 127.585 26.928C127.329 26.816 127.145 26.632 127.033 26.376C126.921 26.12 126.913 25.856 127.009 25.584C127.105 25.312 127.321 25.096 127.657 24.936C128.361 24.616 129.089 24.384 129.841 24.24C130.609 24.096 131.417 24.024 132.265 24.024C133.833 24.024 135.025 24.32 135.841 24.912C136.673 25.488 137.089 26.296 137.089 27.336C137.089 28.072 136.841 28.696 136.345 29.208C135.849 29.704 135.185 30.008 134.353 30.12V29.784C135.345 29.848 136.121 30.136 136.681 30.648C137.241 31.16 137.521 31.848 137.521 32.712C137.521 33.784 137.049 34.64 136.105 35.28C135.161 35.92 133.801 36.24 132.025 36.24ZM144.037 36.24C143.189 36.24 142.429 36.08 141.757 35.76C141.101 35.424 140.581 34.976 140.197 34.416C139.829 33.856 139.645 33.224 139.645 32.52C139.645 31.656 139.869 30.976 140.317 30.48C140.765 29.968 141.493 29.6 142.501 29.376C143.509 29.152 144.861 29.04 146.557 29.04H147.757V30.768H146.581C145.589 30.768 144.797 30.816 144.205 30.912C143.613 31.008 143.189 31.176 142.933 31.416C142.693 31.64 142.573 31.96 142.573 32.376C142.573 32.904 142.757 33.336 143.125 33.672C143.493 34.008 144.005 34.176 144.661 34.176C145.189 34.176 145.653 34.056 146.053 33.816C146.469 33.56 146.797 33.216 147.037 32.784C147.277 32.352 147.397 31.856 147.397 31.296V28.536C147.397 27.736 147.221 27.16 146.869 26.808C146.517 26.456 145.925 26.28 145.093 26.28C144.629 26.28 144.125 26.336 143.581 26.448C143.053 26.56 142.493 26.752 141.901 27.024C141.597 27.168 141.325 27.208 141.085 27.144C140.861 27.08 140.685 26.952 140.557 26.76C140.429 26.552 140.365 26.328 140.365 26.088C140.365 25.848 140.429 25.616 140.557 25.392C140.685 25.152 140.901 24.976 141.205 24.864C141.941 24.56 142.645 24.344 143.317 24.216C144.005 24.088 144.629 24.024 145.189 24.024C146.341 24.024 147.285 24.2 148.021 24.552C148.773 24.904 149.333 25.44 149.701 26.16C150.069 26.864 150.253 27.776 150.253 28.896V34.656C150.253 35.152 150.133 35.536 149.893 35.808C149.653 36.064 149.309 36.192 148.861 36.192C148.413 36.192 148.061 36.064 147.805 35.808C147.565 35.536 147.445 35.152 147.445 34.656V33.504H147.637C147.525 34.064 147.301 34.552 146.965 34.968C146.645 35.368 146.237 35.68 145.741 35.904C145.245 36.128 144.677 36.24 144.037 36.24ZM154.994 36.192C154.69 36.192 154.434 36.136 154.226 36.024C154.018 35.912 153.858 35.736 153.746 35.496C153.65 35.256 153.602 34.952 153.602 34.584V25.512C153.602 25.048 153.722 24.696 153.962 24.456C154.202 24.2 154.538 24.072 154.97 24.072C155.402 24.072 155.73 24.2 155.954 24.456C156.194 24.696 156.314 25.048 156.314 25.512V32.928H155.69L161.618 25.032C161.794 24.808 162.01 24.592 162.266 24.384C162.522 24.176 162.874 24.072 163.322 24.072C163.626 24.072 163.874 24.128 164.066 24.24C164.274 24.352 164.426 24.528 164.522 24.768C164.634 24.992 164.69 25.288 164.69 25.656V34.752C164.69 35.2 164.57 35.552 164.33 35.808C164.106 36.064 163.778 36.192 163.346 36.192C162.898 36.192 162.554 36.064 162.314 35.808C162.09 35.552 161.978 35.2 161.978 34.752V27.312H162.626L156.674 35.232C156.514 35.456 156.306 35.672 156.05 35.88C155.81 36.088 155.458 36.192 154.994 36.192ZM159.146 22.776C158.154 22.776 157.29 22.552 156.554 22.104C155.818 21.64 155.298 20.992 154.994 20.16C154.882 19.856 154.866 19.608 154.946 19.416C155.042 19.208 155.21 19.064 155.45 18.984C155.69 18.904 155.898 18.912 156.074 19.008C156.266 19.104 156.434 19.296 156.578 19.584C156.85 20.096 157.194 20.48 157.61 20.736C158.042 20.992 158.554 21.12 159.146 21.12C159.754 21.12 160.266 20.992 160.682 20.736C161.114 20.48 161.458 20.096 161.714 19.584C161.858 19.296 162.018 19.104 162.194 19.008C162.386 18.912 162.602 18.904 162.842 18.984C163.082 19.064 163.242 19.208 163.322 19.416C163.418 19.608 163.394 19.856 163.25 20.16C162.85 20.992 162.314 21.64 161.642 22.104C160.97 22.552 160.138 22.776 159.146 22.776ZM169.599 36.192C169.119 36.192 168.743 36.064 168.471 35.808C168.215 35.536 168.087 35.152 168.087 34.656V25.584C168.087 25.072 168.215 24.696 168.471 24.456C168.743 24.2 169.119 24.072 169.599 24.072C170.079 24.072 170.447 24.2 170.703 24.456C170.959 24.696 171.087 25.072 171.087 25.584V28.8H176.271V25.584C176.271 25.072 176.399 24.696 176.655 24.456C176.911 24.2 177.279 24.072 177.759 24.072C178.239 24.072 178.607 24.2 178.863 24.456C179.135 24.696 179.271 25.072 179.271 25.584V34.656C179.271 35.152 179.135 35.536 178.863 35.808C178.607 36.064 178.239 36.192 177.759 36.192C177.279 36.192 176.911 36.064 176.655 35.808C176.399 35.536 176.271 35.152 176.271 34.656V31.152H171.087V34.656C171.087 35.152 170.959 35.536 170.703 35.808C170.463 36.064 170.095 36.192 169.599 36.192Z" fill="#303030"/>
</svg>
