<svg width="106" height="56" viewBox="0 0 106 56" fill="none" xmlns="http://www.w3.org/2000/svg">
<rect width="106" height="56" rx="28" fill="#FEFEFF"/>
<path d="M31.464 36.192C30.968 36.192 30.584 36.056 30.312 35.784C30.056 35.496 29.928 35.104 29.928 34.608V21.648H25.248C24.832 21.648 24.504 21.536 24.264 21.312C24.04 21.072 23.928 20.752 23.928 20.352C23.928 19.936 24.04 19.624 24.264 19.416C24.504 19.192 24.832 19.08 25.248 19.08H37.68C38.096 19.08 38.416 19.192 38.64 19.416C38.88 19.624 39 19.936 39 20.352C39 20.752 38.88 21.072 38.64 21.312C38.416 21.536 38.096 21.648 37.68 21.648H33V34.608C33 35.104 32.872 35.496 32.616 35.784C32.36 36.056 31.976 36.192 31.464 36.192ZM43.2668 36.168C42.7868 36.168 42.4188 36.024 42.1628 35.736C41.9068 35.448 41.7788 35.048 41.7788 34.536V25.728C41.7788 25.2 41.9068 24.8 42.1628 24.528C42.4188 24.24 42.7868 24.096 43.2668 24.096C43.7468 24.096 44.1148 24.24 44.3708 24.528C44.6428 24.8 44.7788 25.2 44.7788 25.728V34.536C44.7788 35.048 44.6508 35.448 44.3948 35.736C44.1388 36.024 43.7628 36.168 43.2668 36.168ZM43.2668 21.864C42.7068 21.864 42.2668 21.728 41.9468 21.456C41.6428 21.168 41.4908 20.776 41.4908 20.28C41.4908 19.768 41.6428 19.376 41.9468 19.104C42.2668 18.832 42.7068 18.696 43.2668 18.696C43.8428 18.696 44.2828 18.832 44.5868 19.104C44.8908 19.376 45.0428 19.768 45.0428 20.28C45.0428 20.776 44.8908 21.168 44.5868 21.456C44.2828 21.728 43.8428 21.864 43.2668 21.864ZM51.9039 36.24C50.5759 36.24 49.5759 35.864 48.9039 35.112C48.2319 34.344 47.8959 33.224 47.8959 31.752V20.4C47.8959 19.904 48.0239 19.528 48.2799 19.272C48.5359 19.016 48.9039 18.888 49.3839 18.888C49.8639 18.888 50.2319 19.016 50.4879 19.272C50.7599 19.528 50.8959 19.904 50.8959 20.4V31.608C50.8959 32.344 51.0479 32.888 51.3519 33.24C51.6719 33.592 52.1199 33.768 52.6959 33.768C52.8239 33.768 52.9439 33.768 53.0559 33.768C53.1679 33.752 53.2799 33.736 53.3919 33.72C53.6159 33.688 53.7679 33.752 53.8479 33.912C53.9279 34.056 53.9679 34.36 53.9679 34.824C53.9679 35.224 53.8879 35.536 53.7279 35.76C53.5679 35.984 53.3039 36.12 52.9359 36.168C52.7759 36.184 52.6079 36.2 52.4319 36.216C52.2559 36.232 52.0799 36.24 51.9039 36.24ZM59.9548 36.24C58.9308 36.24 58.0268 35.992 57.2428 35.496C56.4748 35 55.8748 34.296 55.4428 33.384C55.0108 32.456 54.7948 31.368 54.7948 30.12C54.7948 28.856 55.0108 27.776 55.4428 26.88C55.8748 25.968 56.4748 25.264 57.2428 24.768C58.0268 24.272 58.9308 24.024 59.9548 24.024C60.9308 24.024 61.7788 24.264 62.4988 24.744C63.2348 25.224 63.7308 25.856 63.9868 26.64H63.7228V20.4C63.7228 19.904 63.8508 19.528 64.1068 19.272C64.3628 19.016 64.7308 18.888 65.2108 18.888C65.6908 18.888 66.0588 19.016 66.3148 19.272C66.5868 19.528 66.7228 19.904 66.7228 20.4V34.656C66.7228 35.152 66.5948 35.536 66.3388 35.808C66.0828 36.064 65.7148 36.192 65.2348 36.192C64.7548 36.192 64.3868 36.064 64.1308 35.808C63.8748 35.536 63.7468 35.152 63.7468 34.656V32.784L64.0108 33.504C63.7708 34.336 63.2828 35 62.5468 35.496C61.8108 35.992 60.9468 36.24 59.9548 36.24ZM60.7948 33.96C61.3868 33.96 61.9068 33.816 62.3548 33.528C62.8028 33.24 63.1468 32.816 63.3868 32.256C63.6428 31.68 63.7708 30.968 63.7708 30.12C63.7708 28.84 63.4988 27.888 62.9548 27.264C62.4108 26.624 61.6908 26.304 60.7948 26.304C60.2028 26.304 59.6828 26.448 59.2348 26.736C58.7868 27.008 58.4348 27.432 58.1788 28.008C57.9388 28.568 57.8188 29.272 57.8188 30.12C57.8188 31.384 58.0908 32.344 58.6348 33C59.1788 33.64 59.8988 33.96 60.7948 33.96ZM73.6974 36.24C72.8494 36.24 72.0894 36.08 71.4174 35.76C70.7614 35.424 70.2414 34.976 69.8574 34.416C69.4894 33.856 69.3054 33.224 69.3054 32.52C69.3054 31.656 69.5294 30.976 69.9774 30.48C70.4254 29.968 71.1534 29.6 72.1614 29.376C73.1694 29.152 74.5214 29.04 76.2174 29.04H77.4174V30.768H76.2414C75.2494 30.768 74.4574 30.816 73.8654 30.912C73.2734 31.008 72.8494 31.176 72.5934 31.416C72.3534 31.64 72.2334 31.96 72.2334 32.376C72.2334 32.904 72.4174 33.336 72.7854 33.672C73.1534 34.008 73.6654 34.176 74.3214 34.176C74.8494 34.176 75.3134 34.056 75.7134 33.816C76.1294 33.56 76.4574 33.216 76.6974 32.784C76.9374 32.352 77.0574 31.856 77.0574 31.296V28.536C77.0574 27.736 76.8814 27.16 76.5294 26.808C76.1774 26.456 75.5854 26.28 74.7534 26.28C74.2894 26.28 73.7854 26.336 73.2414 26.448C72.7134 26.56 72.1534 26.752 71.5614 27.024C71.2574 27.168 70.9854 27.208 70.7454 27.144C70.5214 27.08 70.3454 26.952 70.2174 26.76C70.0894 26.552 70.0254 26.328 70.0254 26.088C70.0254 25.848 70.0894 25.616 70.2174 25.392C70.3454 25.152 70.5614 24.976 70.8654 24.864C71.6014 24.56 72.3054 24.344 72.9774 24.216C73.6654 24.088 74.2894 24.024 74.8494 24.024C76.0014 24.024 76.9454 24.2 77.6814 24.552C78.4334 24.904 78.9934 25.44 79.3614 26.16C79.7294 26.864 79.9134 27.776 79.9134 28.896V34.656C79.9134 35.152 79.7934 35.536 79.5534 35.808C79.3134 36.064 78.9694 36.192 78.5214 36.192C78.0734 36.192 77.7214 36.064 77.4654 35.808C77.2254 35.536 77.1054 35.152 77.1054 34.656V33.504H77.2974C77.1854 34.064 76.9614 34.552 76.6254 34.968C76.3054 35.368 75.8974 35.68 75.4014 35.904C74.9054 36.128 74.3374 36.24 73.6974 36.24Z" fill="#303030"/>
</svg>
