<svg width="151" height="56" viewBox="0 0 151 56" fill="none" xmlns="http://www.w3.org/2000/svg">
<rect width="151" height="56" rx="28" fill="#F46B5C"/>
<path d="M31.8 36.192C31.368 36.192 31.016 36.088 30.744 35.88C30.488 35.672 30.28 35.344 30.12 34.896L25.104 20.712C24.928 20.2 24.96 19.768 25.2 19.416C25.456 19.064 25.88 18.888 26.472 18.888C26.904 18.888 27.24 18.992 27.48 19.2C27.72 19.392 27.912 19.704 28.056 20.136L32.376 32.952H31.416L35.928 20.16C36.088 19.728 36.288 19.408 36.528 19.2C36.768 18.992 37.08 18.888 37.464 18.888C37.848 18.888 38.152 18.992 38.376 19.2C38.6 19.408 38.792 19.736 38.952 20.184L43.32 32.952H42.48L46.872 20.136C47.016 19.72 47.208 19.408 47.448 19.2C47.688 18.992 48.016 18.888 48.432 18.888C48.944 18.888 49.32 19.064 49.56 19.416C49.8 19.768 49.832 20.2 49.656 20.712L44.592 34.92C44.432 35.352 44.224 35.672 43.968 35.88C43.712 36.088 43.368 36.192 42.936 36.192C42.504 36.192 42.16 36.088 41.904 35.88C41.648 35.672 41.44 35.344 41.28 34.896L37.104 22.992H37.656L33.432 34.92C33.272 35.352 33.064 35.672 32.808 35.88C32.568 36.088 32.232 36.192 31.8 36.192ZM56.5628 36.24C55.2348 36.24 54.0908 35.992 53.1308 35.496C52.1708 35 51.4268 34.296 50.8988 33.384C50.3868 32.472 50.1308 31.392 50.1308 30.144C50.1308 28.928 50.3788 27.864 50.8748 26.952C51.3868 26.04 52.0828 25.328 52.9628 24.816C53.8588 24.288 54.8748 24.024 56.0108 24.024C56.8428 24.024 57.5868 24.16 58.2428 24.432C58.9148 24.704 59.4828 25.096 59.9468 25.608C60.4268 26.12 60.7868 26.744 61.0268 27.48C61.2828 28.2 61.4108 29.016 61.4108 29.928C61.4108 30.216 61.3068 30.44 61.0988 30.6C60.9068 30.744 60.6268 30.816 60.2588 30.816L52.5548 30.816V29.088L59.2988 29.088L58.9148 29.448C58.9148 28.712 58.8028 28.096 58.5788 27.6C58.3708 27.104 58.0588 26.728 57.6428 26.472C57.2428 26.2 56.7388 26.064 56.1308 26.064C55.4588 26.064 54.8828 26.224 54.4028 26.544C53.9388 26.848 53.5788 27.288 53.3228 27.864C53.0828 28.424 52.9628 29.096 52.9628 29.88V30.048C52.9628 31.36 53.2668 32.344 53.8748 33C54.4988 33.64 55.4108 33.96 56.6108 33.96C57.0268 33.96 57.4908 33.912 58.0028 33.816C58.5308 33.704 59.0268 33.52 59.4908 33.264C59.8268 33.072 60.1228 32.992 60.3788 33.024C60.6348 33.04 60.8348 33.128 60.9788 33.288C61.1388 33.448 61.2348 33.648 61.2668 33.888C61.2988 34.112 61.2508 34.344 61.1228 34.584C61.0108 34.824 60.8108 35.032 60.5228 35.208C59.9628 35.56 59.3148 35.824 58.5788 36C57.8588 36.16 57.1868 36.24 56.5628 36.24ZM70.5546 36.24C69.5626 36.24 68.6906 35.992 67.9386 35.496C67.2026 35 66.7146 34.336 66.4746 33.504L66.7386 32.904V34.656C66.7386 35.152 66.6106 35.536 66.3546 35.808C66.0986 36.064 65.7386 36.192 65.2746 36.192C64.7946 36.192 64.4266 36.064 64.1706 35.808C63.9146 35.536 63.7866 35.152 63.7866 34.656V20.4C63.7866 19.904 63.9146 19.528 64.1706 19.272C64.4266 19.016 64.7946 18.888 65.2746 18.888C65.7546 18.888 66.1226 19.016 66.3786 19.272C66.6506 19.528 66.7866 19.904 66.7866 20.4V26.64H66.4986C66.7546 25.856 67.2506 25.224 67.9866 24.744C68.7226 24.264 69.5786 24.024 70.5546 24.024C71.5946 24.024 72.4986 24.272 73.2666 24.768C74.0346 25.264 74.6346 25.968 75.0666 26.88C75.4986 27.776 75.7146 28.856 75.7146 30.12C75.7146 31.368 75.4986 32.456 75.0666 33.384C74.6346 34.296 74.0266 35 73.2426 35.496C72.4746 35.992 71.5786 36.24 70.5546 36.24ZM69.7146 33.96C70.3066 33.96 70.8266 33.816 71.2746 33.528C71.7226 33.24 72.0666 32.816 72.3066 32.256C72.5626 31.68 72.6906 30.968 72.6906 30.12C72.6906 28.84 72.4186 27.888 71.8746 27.264C71.3306 26.624 70.6106 26.304 69.7146 26.304C69.1226 26.304 68.6026 26.448 68.1546 26.736C67.7066 27.008 67.3546 27.432 67.0986 28.008C66.8586 28.568 66.7386 29.272 66.7386 30.12C66.7386 31.384 67.0106 32.344 67.5546 33C68.0986 33.64 68.8186 33.96 69.7146 33.96ZM80.364 36.192C79.884 36.192 79.508 36.064 79.236 35.808C78.98 35.536 78.852 35.152 78.852 34.656V26.52H77.748C77.364 26.52 77.068 26.424 76.86 26.232C76.652 26.024 76.548 25.744 76.548 25.392C76.548 25.024 76.652 24.744 76.86 24.552C77.068 24.36 77.364 24.264 77.748 24.264H79.716L78.852 25.056V24.24C78.852 22.592 79.268 21.36 80.1 20.544C80.932 19.712 82.132 19.224 83.7 19.08L84.516 19.008C84.836 18.976 85.092 19.032 85.284 19.176C85.476 19.304 85.604 19.48 85.668 19.704C85.732 19.912 85.74 20.128 85.692 20.352C85.644 20.576 85.54 20.776 85.38 20.952C85.236 21.112 85.044 21.2 84.804 21.216L84.468 21.24C83.556 21.304 82.892 21.536 82.476 21.936C82.06 22.336 81.852 22.944 81.852 23.76V24.648L81.468 24.264H83.892C84.276 24.264 84.572 24.36 84.78 24.552C84.988 24.744 85.092 25.024 85.092 25.392C85.092 25.744 84.988 26.024 84.78 26.232C84.572 26.424 84.276 26.52 83.892 26.52H81.852V34.656C81.852 35.68 81.356 36.192 80.364 36.192ZM90.804 36.24C89.476 36.24 88.476 35.864 87.804 35.112C87.132 34.344 86.796 33.224 86.796 31.752V20.4C86.796 19.904 86.924 19.528 87.18 19.272C87.436 19.016 87.804 18.888 88.284 18.888C88.764 18.888 89.132 19.016 89.388 19.272C89.66 19.528 89.796 19.904 89.796 20.4V31.608C89.796 32.344 89.948 32.888 90.252 33.24C90.572 33.592 91.02 33.768 91.596 33.768C91.724 33.768 91.844 33.768 91.956 33.768C92.068 33.752 92.18 33.736 92.292 33.72C92.516 33.688 92.668 33.752 92.748 33.912C92.828 34.056 92.868 34.36 92.868 34.824C92.868 35.224 92.788 35.536 92.628 35.76C92.468 35.984 92.204 36.12 91.836 36.168C91.676 36.184 91.508 36.2 91.332 36.216C91.156 36.232 90.98 36.24 90.804 36.24ZM99.6776 36.24C98.4616 36.24 97.4056 35.992 96.5096 35.496C95.6136 35 94.9176 34.296 94.4216 33.384C93.9256 32.456 93.6776 31.368 93.6776 30.12C93.6776 29.176 93.8136 28.336 94.0856 27.6C94.3736 26.848 94.7816 26.208 95.3096 25.68C95.8376 25.136 96.4696 24.728 97.2056 24.456C97.9416 24.168 98.7656 24.024 99.6776 24.024C100.894 24.024 101.95 24.272 102.846 24.768C103.742 25.264 104.438 25.968 104.934 26.88C105.43 27.792 105.678 28.872 105.678 30.12C105.678 31.064 105.534 31.912 105.246 32.664C104.974 33.416 104.574 34.064 104.046 34.608C103.518 35.136 102.886 35.544 102.15 35.832C101.414 36.104 100.59 36.24 99.6776 36.24ZM99.6776 33.96C100.27 33.96 100.79 33.816 101.238 33.528C101.686 33.24 102.03 32.816 102.27 32.256C102.526 31.68 102.654 30.968 102.654 30.12C102.654 28.84 102.382 27.888 101.838 27.264C101.294 26.624 100.574 26.304 99.6776 26.304C99.0856 26.304 98.5656 26.448 98.1176 26.736C97.6696 27.008 97.3176 27.432 97.0616 28.008C96.8216 28.568 96.7016 29.272 96.7016 30.12C96.7016 31.384 96.9736 32.344 97.5176 33C98.0616 33.64 98.7816 33.96 99.6776 33.96ZM112.455 36.192C112.055 36.192 111.711 36.096 111.423 35.904C111.135 35.696 110.903 35.376 110.727 34.944L107.247 26.064C107.103 25.68 107.055 25.344 107.103 25.056C107.167 24.752 107.319 24.512 107.559 24.336C107.799 24.16 108.119 24.072 108.519 24.072C108.871 24.072 109.159 24.16 109.383 24.336C109.607 24.496 109.799 24.808 109.959 25.272L112.863 33.264H112.311L115.311 25.08C115.439 24.728 115.607 24.472 115.815 24.312C116.039 24.152 116.327 24.072 116.679 24.072C117.031 24.072 117.319 24.16 117.543 24.336C117.767 24.496 117.935 24.744 118.047 25.08L120.999 33.264H120.495L123.423 25.2C123.583 24.768 123.783 24.472 124.023 24.312C124.279 24.152 124.559 24.072 124.863 24.072C125.247 24.072 125.543 24.168 125.751 24.36C125.959 24.552 126.079 24.8 126.111 25.104C126.143 25.392 126.087 25.712 125.943 26.064L122.487 34.944C122.327 35.36 122.095 35.672 121.791 35.88C121.503 36.088 121.159 36.192 120.759 36.192C120.359 36.192 120.007 36.088 119.703 35.88C119.415 35.672 119.191 35.36 119.031 34.944L115.887 26.616H117.255L114.183 34.92C114.023 35.352 113.799 35.672 113.511 35.88C113.223 36.088 112.871 36.192 112.455 36.192Z" fill="#303030"/>
</svg>
