<svg width="220" height="56" viewBox="0 0 220 56" fill="none" xmlns="http://www.w3.org/2000/svg">
<rect width="220" height="56" rx="28" fill="#E9F45D"/>
<path d="M31.8 36.192C31.368 36.192 31.016 36.088 30.744 35.88C30.488 35.672 30.28 35.344 30.12 34.896L25.104 20.712C24.928 20.2 24.96 19.768 25.2 19.416C25.456 19.064 25.88 18.888 26.472 18.888C26.904 18.888 27.24 18.992 27.48 19.2C27.72 19.392 27.912 19.704 28.056 20.136L32.376 32.952H31.416L35.928 20.16C36.088 19.728 36.288 19.408 36.528 19.2C36.768 18.992 37.08 18.888 37.464 18.888C37.848 18.888 38.152 18.992 38.376 19.2C38.6 19.408 38.792 19.736 38.952 20.184L43.32 32.952H42.48L46.872 20.136C47.016 19.72 47.208 19.408 47.448 19.2C47.688 18.992 48.016 18.888 48.432 18.888C48.944 18.888 49.32 19.064 49.56 19.416C49.8 19.768 49.832 20.2 49.656 20.712L44.592 34.92C44.432 35.352 44.224 35.672 43.968 35.88C43.712 36.088 43.368 36.192 42.936 36.192C42.504 36.192 42.16 36.088 41.904 35.88C41.648 35.672 41.44 35.344 41.28 34.896L37.104 22.992H37.656L33.432 34.92C33.272 35.352 33.064 35.672 32.808 35.88C32.568 36.088 32.232 36.192 31.8 36.192ZM59.7289 36.24C58.0969 36.24 56.6649 35.88 55.4329 35.16C54.2169 34.44 53.2729 33.432 52.6009 32.136C51.9289 30.824 51.5929 29.288 51.5929 27.528C51.5929 26.2 51.7849 25.008 52.1689 23.952C52.5529 22.88 53.0969 21.968 53.8009 21.216C54.5209 20.448 55.3769 19.864 56.3689 19.464C57.3769 19.048 58.4969 18.84 59.7289 18.84C61.3769 18.84 62.8089 19.2 64.0249 19.92C65.2409 20.624 66.1849 21.624 66.8569 22.92C67.5289 24.216 67.8649 25.744 67.8649 27.504C67.8649 28.832 67.6729 30.032 67.2889 31.104C66.9049 32.176 66.3529 33.096 65.6329 33.864C64.9289 34.632 64.0729 35.224 63.0649 35.64C62.0729 36.04 60.9609 36.24 59.7289 36.24ZM59.7289 33.6C60.7689 33.6 61.6489 33.36 62.3689 32.88C63.1049 32.4 63.6649 31.704 64.0489 30.792C64.4489 29.88 64.6489 28.792 64.6489 27.528C64.6489 25.608 64.2169 24.12 63.3529 23.064C62.5049 22.008 61.2969 21.48 59.7289 21.48C58.7049 21.48 57.8249 21.72 57.0889 22.2C56.3529 22.664 55.7849 23.352 55.3849 24.264C55.0009 25.16 54.8089 26.248 54.8089 27.528C54.8089 29.432 55.2409 30.92 56.1049 31.992C56.9689 33.064 58.1769 33.6 59.7289 33.6ZM76.5188 36.192C76.0868 36.192 75.7348 36.088 75.4628 35.88C75.2068 35.672 74.9988 35.344 74.8388 34.896L69.8228 20.712C69.6468 20.2 69.6788 19.768 69.9188 19.416C70.1748 19.064 70.5988 18.888 71.1908 18.888C71.6228 18.888 71.9588 18.992 72.1988 19.2C72.4388 19.392 72.6308 19.704 72.7748 20.136L77.0948 32.952H76.1348L80.6468 20.16C80.8068 19.728 81.0068 19.408 81.2468 19.2C81.4868 18.992 81.7988 18.888 82.1828 18.888C82.5668 18.888 82.8708 18.992 83.0948 19.2C83.3188 19.408 83.5108 19.736 83.6708 20.184L88.0388 32.952H87.1988L91.5908 20.136C91.7348 19.72 91.9268 19.408 92.1668 19.2C92.4068 18.992 92.7348 18.888 93.1508 18.888C93.6628 18.888 94.0388 19.064 94.2788 19.416C94.5188 19.768 94.5508 20.2 94.3748 20.712L89.3108 34.92C89.1508 35.352 88.9428 35.672 88.6868 35.88C88.4308 36.088 88.0868 36.192 87.6548 36.192C87.2228 36.192 86.8788 36.088 86.6228 35.88C86.3668 35.672 86.1588 35.344 85.9988 34.896L81.8228 22.992H82.3748L78.1508 34.92C77.9908 35.352 77.7828 35.672 77.5268 35.88C77.2868 36.088 76.9508 36.192 76.5188 36.192ZM96.9062 30.768C96.5542 30.768 96.2582 30.656 96.0182 30.432C95.7942 30.192 95.6822 29.904 95.6822 29.568C95.6822 29.216 95.7942 28.928 96.0182 28.704C96.2582 28.48 96.5542 28.368 96.9062 28.368H102.018C102.354 28.368 102.634 28.48 102.858 28.704C103.098 28.928 103.218 29.216 103.218 29.568C103.218 29.904 103.098 30.192 102.858 30.432C102.634 30.656 102.354 30.768 102.018 30.768H96.9062ZM109.64 36.24C108.936 36.24 108.224 36.152 107.504 35.976C106.8 35.784 106.208 35.544 105.728 35.256C105.472 35.096 105.304 34.912 105.224 34.704C105.144 34.496 105.128 34.288 105.176 34.08C105.24 33.856 105.344 33.664 105.488 33.504C105.632 33.344 105.808 33.248 106.016 33.216C106.224 33.168 106.44 33.208 106.664 33.336C107.08 33.592 107.528 33.784 108.008 33.912C108.488 34.04 108.952 34.104 109.4 34.104C110.12 34.104 110.744 33.968 111.272 33.696C111.8 33.424 112.216 33.024 112.52 32.496C112.84 31.952 113.024 31.296 113.072 30.528L113.792 31.152H108.584C108.184 31.152 107.872 31.064 107.648 30.888C107.424 30.696 107.312 30.424 107.312 30.072C107.312 29.72 107.424 29.456 107.648 29.28C107.872 29.088 108.184 28.992 108.584 28.992H113.792L113.072 29.736C113.04 28.968 112.872 28.32 112.568 27.792C112.28 27.264 111.864 26.864 111.32 26.592C110.792 26.304 110.152 26.16 109.4 26.16C108.952 26.16 108.488 26.224 108.008 26.352C107.528 26.48 107.072 26.672 106.64 26.928C106.416 27.056 106.2 27.104 105.992 27.072C105.8 27.024 105.632 26.928 105.488 26.784C105.344 26.624 105.248 26.44 105.2 26.232C105.152 26.024 105.168 25.816 105.248 25.608C105.344 25.384 105.52 25.192 105.776 25.032C106.24 24.744 106.816 24.504 107.504 24.312C108.208 24.12 108.912 24.024 109.616 24.024C110.896 24.024 112 24.272 112.928 24.768C113.872 25.248 114.592 25.944 115.088 26.856C115.6 27.752 115.856 28.824 115.856 30.072C115.856 31.016 115.712 31.872 115.424 32.64C115.136 33.392 114.72 34.04 114.176 34.584C113.632 35.112 112.976 35.52 112.208 35.808C111.456 36.096 110.6 36.24 109.64 36.24ZM126.986 40.512C126.506 40.512 126.138 40.376 125.882 40.104C125.626 39.832 125.498 39.44 125.498 38.928V33.768H125.738C125.482 34.552 125.066 35.16 124.49 35.592C123.914 36.024 123.218 36.24 122.402 36.24C121.538 36.24 120.778 35.992 120.122 35.496C119.466 34.984 118.946 34.272 118.562 33.36C118.194 32.432 118.01 31.352 118.01 30.12C118.01 28.872 118.194 27.792 118.562 26.88C118.946 25.968 119.466 25.264 120.122 24.768C120.778 24.272 121.538 24.024 122.402 24.024C123.234 24.024 123.938 24.24 124.514 24.672C125.09 25.104 125.498 25.712 125.738 26.496H125.498V20.472C125.498 19.96 125.626 19.568 125.882 19.296C126.138 19.024 126.506 18.888 126.986 18.888C127.466 18.888 127.834 19.024 128.09 19.296C128.362 19.568 128.498 19.96 128.498 20.472V26.496H128.234C128.474 25.712 128.882 25.104 129.458 24.672C130.05 24.24 130.754 24.024 131.57 24.024C132.434 24.024 133.194 24.272 133.85 24.768C134.522 25.264 135.042 25.968 135.41 26.88C135.778 27.792 135.962 28.872 135.962 30.12C135.962 31.352 135.778 32.432 135.41 33.36C135.042 34.272 134.53 34.984 133.874 35.496C133.218 35.992 132.45 36.24 131.57 36.24C130.77 36.24 130.082 36.024 129.506 35.592C128.93 35.16 128.506 34.552 128.234 33.768H128.498V38.928C128.498 39.44 128.37 39.832 128.114 40.104C127.858 40.376 127.482 40.512 126.986 40.512ZM123.29 33.984C123.754 33.984 124.154 33.848 124.49 33.576C124.826 33.288 125.082 32.856 125.258 32.28C125.45 31.704 125.546 30.984 125.546 30.12C125.546 28.824 125.338 27.864 124.922 27.24C124.506 26.6 123.962 26.28 123.29 26.28C122.842 26.28 122.442 26.424 122.09 26.712C121.754 26.984 121.49 27.408 121.298 27.984C121.106 28.544 121.01 29.256 121.01 30.12C121.01 30.984 121.098 31.704 121.274 32.28C121.466 32.856 121.73 33.288 122.066 33.576C122.418 33.848 122.826 33.984 123.29 33.984ZM130.682 33.984C131.146 33.984 131.546 33.848 131.882 33.576C132.234 33.288 132.498 32.856 132.674 32.28C132.866 31.704 132.962 30.984 132.962 30.12C132.962 29.256 132.866 28.544 132.674 27.984C132.482 27.408 132.218 26.984 131.882 26.712C131.546 26.424 131.146 26.28 130.682 26.28C130.234 26.28 129.842 26.424 129.506 26.712C129.17 26.984 128.906 27.408 128.714 27.984C128.538 28.544 128.45 29.256 128.45 30.12C128.45 31.432 128.65 32.408 129.05 33.048C129.45 33.672 129.994 33.984 130.682 33.984ZM147.095 40.512C146.615 40.512 146.247 40.376 145.991 40.104C145.735 39.832 145.607 39.44 145.607 38.928V33.768H145.847C145.591 34.552 145.175 35.16 144.599 35.592C144.023 36.024 143.327 36.24 142.511 36.24C141.647 36.24 140.887 35.992 140.231 35.496C139.575 34.984 139.055 34.272 138.671 33.36C138.303 32.432 138.119 31.352 138.119 30.12C138.119 28.872 138.303 27.792 138.671 26.88C139.055 25.968 139.575 25.264 140.231 24.768C140.887 24.272 141.647 24.024 142.511 24.024C143.343 24.024 144.047 24.24 144.623 24.672C145.199 25.104 145.607 25.712 145.847 26.496H145.607V20.472C145.607 19.96 145.735 19.568 145.991 19.296C146.247 19.024 146.615 18.888 147.095 18.888C147.575 18.888 147.943 19.024 148.199 19.296C148.471 19.568 148.607 19.96 148.607 20.472V26.496H148.343C148.583 25.712 148.991 25.104 149.567 24.672C150.159 24.24 150.863 24.024 151.679 24.024C152.543 24.024 153.303 24.272 153.959 24.768C154.631 25.264 155.151 25.968 155.519 26.88C155.887 27.792 156.071 28.872 156.071 30.12C156.071 31.352 155.887 32.432 155.519 33.36C155.151 34.272 154.639 34.984 153.983 35.496C153.327 35.992 152.559 36.24 151.679 36.24C150.879 36.24 150.191 36.024 149.615 35.592C149.039 35.16 148.615 34.552 148.343 33.768H148.607V38.928C148.607 39.44 148.479 39.832 148.223 40.104C147.967 40.376 147.591 40.512 147.095 40.512ZM143.399 33.984C143.863 33.984 144.263 33.848 144.599 33.576C144.935 33.288 145.191 32.856 145.367 32.28C145.559 31.704 145.655 30.984 145.655 30.12C145.655 28.824 145.447 27.864 145.031 27.24C144.615 26.6 144.071 26.28 143.399 26.28C142.951 26.28 142.551 26.424 142.199 26.712C141.863 26.984 141.599 27.408 141.407 27.984C141.215 28.544 141.119 29.256 141.119 30.12C141.119 30.984 141.207 31.704 141.383 32.28C141.575 32.856 141.839 33.288 142.175 33.576C142.527 33.848 142.935 33.984 143.399 33.984ZM150.791 33.984C151.255 33.984 151.655 33.848 151.991 33.576C152.343 33.288 152.607 32.856 152.783 32.28C152.975 31.704 153.071 30.984 153.071 30.12C153.071 29.256 152.975 28.544 152.783 27.984C152.591 27.408 152.327 26.984 151.991 26.712C151.655 26.424 151.255 26.28 150.791 26.28C150.343 26.28 149.951 26.424 149.615 26.712C149.279 26.984 149.015 27.408 148.823 27.984C148.647 28.544 148.559 29.256 148.559 30.12C148.559 31.432 148.759 32.408 149.159 33.048C149.559 33.672 150.103 33.984 150.791 33.984ZM164.66 36.24C163.332 36.24 162.188 35.992 161.228 35.496C160.268 35 159.524 34.296 158.996 33.384C158.484 32.472 158.228 31.392 158.228 30.144C158.228 28.928 158.476 27.864 158.972 26.952C159.484 26.04 160.18 25.328 161.06 24.816C161.956 24.288 162.972 24.024 164.108 24.024C164.94 24.024 165.684 24.16 166.34 24.432C167.012 24.704 167.58 25.096 168.044 25.608C168.524 26.12 168.884 26.744 169.124 27.48C169.38 28.2 169.508 29.016 169.508 29.928C169.508 30.216 169.404 30.44 169.196 30.6C169.004 30.744 168.724 30.816 168.356 30.816H160.652V29.088H167.396L167.012 29.448C167.012 28.712 166.9 28.096 166.676 27.6C166.468 27.104 166.156 26.728 165.74 26.472C165.34 26.2 164.836 26.064 164.228 26.064C163.556 26.064 162.98 26.224 162.5 26.544C162.036 26.848 161.676 27.288 161.42 27.864C161.18 28.424 161.06 29.096 161.06 29.88V30.048C161.06 31.36 161.364 32.344 161.972 33C162.596 33.64 163.508 33.96 164.708 33.96C165.124 33.96 165.588 33.912 166.1 33.816C166.628 33.704 167.124 33.52 167.588 33.264C167.924 33.072 168.22 32.992 168.476 33.024C168.732 33.04 168.932 33.128 169.076 33.288C169.236 33.448 169.332 33.648 169.364 33.888C169.396 34.112 169.348 34.344 169.22 34.584C169.108 34.824 168.908 35.032 168.62 35.208C168.06 35.56 167.412 35.824 166.676 36C165.956 36.16 165.284 36.24 164.66 36.24ZM173.7 36.192C173.22 36.192 172.844 36.064 172.572 35.808C172.316 35.536 172.188 35.152 172.188 34.656V25.632C172.188 25.136 172.316 24.76 172.572 24.504C172.844 24.232 173.22 24.096 173.7 24.096C174.18 24.096 174.548 24.232 174.804 24.504C175.06 24.76 175.188 25.136 175.188 25.632V28.824H176.892L179.892 24.792C180.116 24.488 180.372 24.296 180.66 24.216C180.948 24.12 181.22 24.112 181.476 24.192C181.748 24.272 181.964 24.416 182.124 24.624C182.3 24.832 182.388 25.08 182.388 25.368C182.404 25.64 182.3 25.928 182.076 26.232L179.22 30.144L178.572 29.184C179.004 29.232 179.388 29.352 179.724 29.544C180.076 29.736 180.396 30.008 180.684 30.36C180.988 30.696 181.284 31.12 181.572 31.632L182.988 34.152C183.18 34.488 183.244 34.8 183.18 35.088C183.132 35.36 182.996 35.592 182.772 35.784C182.564 35.976 182.316 36.096 182.028 36.144C181.74 36.192 181.452 36.152 181.164 36.024C180.892 35.912 180.66 35.688 180.468 35.352L178.86 32.544C178.652 32.176 178.444 31.896 178.236 31.704C178.044 31.496 177.82 31.352 177.564 31.272C177.324 31.192 177.028 31.152 176.676 31.152H175.188V34.656C175.188 35.152 175.06 35.536 174.804 35.808C174.548 36.064 174.18 36.192 173.7 36.192ZM189.579 36.192C189.099 36.192 188.723 36.064 188.451 35.808C188.195 35.536 188.067 35.152 188.067 34.656V26.616H185.139C184.275 26.616 183.843 26.224 183.843 25.44C183.843 25.072 183.955 24.784 184.179 24.576C184.419 24.368 184.739 24.264 185.139 24.264H193.995C194.859 24.264 195.291 24.656 195.291 25.44C195.291 25.824 195.179 26.12 194.955 26.328C194.731 26.52 194.411 26.616 193.995 26.616H191.067V34.656C191.067 35.152 190.939 35.536 190.683 35.808C190.443 36.064 190.075 36.192 189.579 36.192Z" fill="#303030"/>
</svg>
