<svg width="172" height="56" viewBox="0 0 172 56" fill="none" xmlns="http://www.w3.org/2000/svg">
<rect width="172" height="56" rx="28" fill="#FEFEFF"/>
<path d="M31.8 36.192C31.368 36.192 31.016 36.088 30.744 35.88C30.488 35.672 30.28 35.344 30.12 34.896L25.104 20.712C24.928 20.2 24.96 19.768 25.2 19.416C25.456 19.064 25.88 18.888 26.472 18.888C26.904 18.888 27.24 18.992 27.48 19.2C27.72 19.392 27.912 19.704 28.056 20.136L32.376 32.952H31.416L35.928 20.16C36.088 19.728 36.288 19.408 36.528 19.2C36.768 18.992 37.08 18.888 37.464 18.888C37.848 18.888 38.152 18.992 38.376 19.2C38.6 19.408 38.792 19.736 38.952 20.184L43.32 32.952H42.48L46.872 20.136C47.016 19.72 47.208 19.408 47.448 19.2C47.688 18.992 48.016 18.888 48.432 18.888C48.944 18.888 49.32 19.064 49.56 19.416C49.8 19.768 49.832 20.2 49.656 20.712L44.592 34.92C44.432 35.352 44.224 35.672 43.968 35.88C43.712 36.088 43.368 36.192 42.936 36.192C42.504 36.192 42.16 36.088 41.904 35.88C41.648 35.672 41.44 35.344 41.28 34.896L37.104 22.992H37.656L33.432 34.92C33.272 35.352 33.064 35.672 32.808 35.88C32.568 36.088 32.232 36.192 31.8 36.192ZM56.1308 36.24C54.9148 36.24 53.8588 35.992 52.9628 35.496C52.0668 35 51.3708 34.296 50.8748 33.384C50.3788 32.456 50.1308 31.368 50.1308 30.12C50.1308 29.176 50.2668 28.336 50.5388 27.6C50.8268 26.848 51.2348 26.208 51.7628 25.68C52.2908 25.136 52.9228 24.728 53.6588 24.456C54.3948 24.168 55.2188 24.024 56.1308 24.024C57.3468 24.024 58.4028 24.272 59.2988 24.768C60.1948 25.264 60.8908 25.968 61.3868 26.88C61.8828 27.792 62.1308 28.872 62.1308 30.12C62.1308 31.064 61.9868 31.912 61.6988 32.664C61.4268 33.416 61.0268 34.064 60.4988 34.608C59.9708 35.136 59.3388 35.544 58.6028 35.832C57.8668 36.104 57.0428 36.24 56.1308 36.24ZM56.1308 33.96C56.7228 33.96 57.2428 33.816 57.6908 33.528C58.1388 33.24 58.4828 32.816 58.7228 32.256C58.9788 31.68 59.1068 30.968 59.1068 30.12C59.1068 28.84 58.8348 27.888 58.2908 27.264C57.7468 26.624 57.0268 26.304 56.1308 26.304C55.5388 26.304 55.0188 26.448 54.5708 26.736C54.1228 27.008 53.7708 27.432 53.5148 28.008C53.2748 28.568 53.1548 29.272 53.1548 30.12C53.1548 31.384 53.4268 32.344 53.9708 33C54.5148 33.64 55.2348 33.96 56.1308 33.96ZM66.1429 36.192C65.6469 36.192 65.2629 36.064 64.9909 35.808C64.7349 35.536 64.6069 35.152 64.6069 34.656V25.584C64.6069 25.088 64.7349 24.712 64.9909 24.456C65.2469 24.2 65.6069 24.072 66.0709 24.072C66.5349 24.072 66.8949 24.2 67.1509 24.456C67.4069 24.712 67.5349 25.088 67.5349 25.584V27.096H67.2949C67.5189 26.136 67.9589 25.408 68.6149 24.912C69.2709 24.416 70.1429 24.12 71.2309 24.024C71.5669 23.992 71.8309 24.08 72.0229 24.288C72.2309 24.48 72.3509 24.784 72.3829 25.2C72.4149 25.6 72.3189 25.928 72.0949 26.184C71.8869 26.424 71.5669 26.568 71.1349 26.616L70.6069 26.664C69.6309 26.76 68.8949 27.064 68.3989 27.576C67.9029 28.072 67.6549 28.776 67.6549 29.688V34.656C67.6549 35.152 67.5269 35.536 67.2709 35.808C67.0149 36.064 66.6389 36.192 66.1429 36.192ZM78.3298 36.24C77.3058 36.24 76.4018 35.992 75.6178 35.496C74.8498 35 74.2498 34.296 73.8178 33.384C73.3858 32.456 73.1698 31.368 73.1698 30.12C73.1698 28.856 73.3858 27.776 73.8178 26.88C74.2498 25.968 74.8498 25.264 75.6178 24.768C76.4018 24.272 77.3058 24.024 78.3298 24.024C79.3058 24.024 80.1538 24.264 80.8738 24.744C81.6098 25.224 82.1058 25.856 82.3618 26.64H82.0978V20.4C82.0978 19.904 82.2258 19.528 82.4818 19.272C82.7378 19.016 83.1058 18.888 83.5858 18.888C84.0658 18.888 84.4338 19.016 84.6898 19.272C84.9618 19.528 85.0978 19.904 85.0978 20.4V34.656C85.0978 35.152 84.9698 35.536 84.7138 35.808C84.4578 36.064 84.0898 36.192 83.6098 36.192C83.1298 36.192 82.7618 36.064 82.5058 35.808C82.2498 35.536 82.1218 35.152 82.1218 34.656V32.784L82.3858 33.504C82.1458 34.336 81.6578 35 80.9218 35.496C80.1858 35.992 79.3218 36.24 78.3298 36.24ZM79.1698 33.96C79.7618 33.96 80.2818 33.816 80.7298 33.528C81.1778 33.24 81.5218 32.816 81.7618 32.256C82.0178 31.68 82.1458 30.968 82.1458 30.12C82.1458 28.84 81.8738 27.888 81.3298 27.264C80.7858 26.624 80.0658 26.304 79.1698 26.304C78.5778 26.304 78.0578 26.448 77.6098 26.736C77.1618 27.008 76.8098 27.432 76.5538 28.008C76.3138 28.568 76.1938 29.272 76.1938 30.12C76.1938 31.384 76.4658 32.344 77.0098 33C77.5538 33.64 78.2738 33.96 79.1698 33.96ZM90.0324 36.192C89.5364 36.192 89.1524 36.056 88.8804 35.784C88.6244 35.496 88.4964 35.104 88.4964 34.608V20.64C88.4964 20.128 88.6324 19.744 88.9044 19.488C89.1764 19.216 89.5604 19.08 90.0564 19.08H95.8404C97.6964 19.08 99.1284 19.544 100.136 20.472C101.144 21.4 101.648 22.696 101.648 24.36C101.648 26.024 101.144 27.328 100.136 28.272C99.1284 29.2 97.6964 29.664 95.8404 29.664H91.5684V34.608C91.5684 35.104 91.4404 35.496 91.1844 35.784C90.9284 36.056 90.5444 36.192 90.0324 36.192ZM91.5684 27.24H95.3604C96.4484 27.24 97.2724 27 97.8324 26.52C98.3924 26.024 98.6724 25.304 98.6724 24.36C98.6724 23.416 98.3924 22.704 97.8324 22.224C97.2724 21.744 96.4484 21.504 95.3604 21.504H91.5684V27.24ZM105.166 36.192C104.67 36.192 104.286 36.064 104.014 35.808C103.758 35.536 103.63 35.152 103.63 34.656V25.584C103.63 25.088 103.758 24.712 104.014 24.456C104.27 24.2 104.63 24.072 105.094 24.072C105.558 24.072 105.918 24.2 106.174 24.456C106.43 24.712 106.558 25.088 106.558 25.584V27.096H106.318C106.542 26.136 106.982 25.408 107.638 24.912C108.294 24.416 109.166 24.12 110.254 24.024C110.59 23.992 110.854 24.08 111.046 24.288C111.254 24.48 111.374 24.784 111.406 25.2C111.438 25.6 111.342 25.928 111.118 26.184C110.91 26.424 110.59 26.568 110.158 26.616L109.63 26.664C108.654 26.76 107.918 27.064 107.422 27.576C106.926 28.072 106.678 28.776 106.678 29.688V34.656C106.678 35.152 106.55 35.536 106.294 35.808C106.038 36.064 105.662 36.192 105.166 36.192ZM118.625 36.24C117.297 36.24 116.153 35.992 115.193 35.496C114.233 35 113.489 34.296 112.961 33.384C112.449 32.472 112.193 31.392 112.193 30.144C112.193 28.928 112.441 27.864 112.937 26.952C113.449 26.04 114.145 25.328 115.025 24.816C115.921 24.288 116.937 24.024 118.073 24.024C118.905 24.024 119.649 24.16 120.305 24.432C120.977 24.704 121.545 25.096 122.009 25.608C122.489 26.12 122.849 26.744 123.089 27.48C123.345 28.2 123.473 29.016 123.473 29.928C123.473 30.216 123.369 30.44 123.161 30.6C122.969 30.744 122.689 30.816 122.321 30.816L114.617 30.816V29.088L121.361 29.088L120.977 29.448C120.977 28.712 120.865 28.096 120.641 27.6C120.433 27.104 120.121 26.728 119.705 26.472C119.305 26.2 118.801 26.064 118.193 26.064C117.521 26.064 116.945 26.224 116.465 26.544C116.001 26.848 115.641 27.288 115.385 27.864C115.145 28.424 115.025 29.096 115.025 29.88V30.048C115.025 31.36 115.329 32.344 115.937 33C116.561 33.64 117.473 33.96 118.673 33.96C119.089 33.96 119.553 33.912 120.065 33.816C120.593 33.704 121.089 33.52 121.553 33.264C121.889 33.072 122.185 32.992 122.441 33.024C122.697 33.04 122.897 33.128 123.041 33.288C123.201 33.448 123.297 33.648 123.329 33.888C123.361 34.112 123.313 34.344 123.185 34.584C123.073 34.824 122.873 35.032 122.585 35.208C122.025 35.56 121.377 35.824 120.641 36C119.921 36.16 119.249 36.24 118.625 36.24ZM130.145 36.24C129.457 36.24 128.729 36.168 127.961 36.024C127.193 35.88 126.505 35.632 125.897 35.28C125.641 35.12 125.457 34.936 125.345 34.728C125.249 34.504 125.209 34.288 125.225 34.08C125.257 33.856 125.337 33.664 125.465 33.504C125.609 33.344 125.785 33.24 125.993 33.192C126.217 33.144 126.457 33.184 126.713 33.312C127.353 33.616 127.953 33.832 128.513 33.96C129.073 34.072 129.625 34.128 130.169 34.128C130.937 34.128 131.505 34 131.873 33.744C132.257 33.472 132.449 33.12 132.449 32.688C132.449 32.32 132.321 32.04 132.065 31.848C131.825 31.64 131.457 31.488 130.961 31.392L128.561 30.936C127.569 30.744 126.809 30.384 126.281 29.856C125.769 29.312 125.513 28.616 125.513 27.768C125.513 27 125.721 26.336 126.137 25.776C126.569 25.216 127.161 24.784 127.913 24.48C128.665 24.176 129.529 24.024 130.505 24.024C131.209 24.024 131.865 24.104 132.473 24.264C133.097 24.408 133.697 24.64 134.273 24.96C134.513 25.088 134.673 25.256 134.753 25.464C134.849 25.672 134.873 25.888 134.825 26.112C134.777 26.32 134.681 26.512 134.537 26.688C134.393 26.848 134.209 26.952 133.985 27C133.777 27.032 133.537 26.984 133.265 26.856C132.769 26.6 132.289 26.416 131.825 26.304C131.377 26.192 130.945 26.136 130.529 26.136C129.745 26.136 129.161 26.272 128.777 26.544C128.409 26.816 128.225 27.176 128.225 27.624C128.225 27.96 128.337 28.24 128.561 28.464C128.785 28.688 129.129 28.84 129.593 28.92L131.993 29.376C133.033 29.568 133.817 29.92 134.345 30.432C134.889 30.944 135.161 31.632 135.161 32.496C135.161 33.664 134.705 34.584 133.793 35.256C132.881 35.912 131.665 36.24 130.145 36.24ZM141.864 36.24C141.176 36.24 140.448 36.168 139.68 36.024C138.912 35.88 138.224 35.632 137.616 35.28C137.36 35.12 137.176 34.936 137.064 34.728C136.968 34.504 136.928 34.288 136.944 34.08C136.976 33.856 137.056 33.664 137.184 33.504C137.328 33.344 137.504 33.24 137.712 33.192C137.936 33.144 138.176 33.184 138.432 33.312C139.072 33.616 139.672 33.832 140.232 33.96C140.792 34.072 141.344 34.128 141.888 34.128C142.656 34.128 143.224 34 143.592 33.744C143.976 33.472 144.168 33.12 144.168 32.688C144.168 32.32 144.04 32.04 143.784 31.848C143.544 31.64 143.176 31.488 142.68 31.392L140.28 30.936C139.288 30.744 138.528 30.384 138 29.856C137.488 29.312 137.232 28.616 137.232 27.768C137.232 27 137.44 26.336 137.856 25.776C138.288 25.216 138.88 24.784 139.632 24.48C140.384 24.176 141.248 24.024 142.224 24.024C142.928 24.024 143.584 24.104 144.192 24.264C144.816 24.408 145.416 24.64 145.992 24.96C146.232 25.088 146.392 25.256 146.472 25.464C146.568 25.672 146.592 25.888 146.544 26.112C146.496 26.32 146.4 26.512 146.256 26.688C146.112 26.848 145.928 26.952 145.704 27C145.496 27.032 145.256 26.984 144.984 26.856C144.488 26.6 144.008 26.416 143.544 26.304C143.096 26.192 142.664 26.136 142.248 26.136C141.464 26.136 140.88 26.272 140.496 26.544C140.128 26.816 139.944 27.176 139.944 27.624C139.944 27.96 140.056 28.24 140.28 28.464C140.504 28.688 140.848 28.84 141.312 28.92L143.712 29.376C144.752 29.568 145.536 29.92 146.064 30.432C146.608 30.944 146.88 31.632 146.88 32.496C146.88 33.664 146.424 34.584 145.512 35.256C144.6 35.912 143.384 36.24 141.864 36.24Z" fill="#303030"/>
</svg>
